<?xml version="1.0" encoding="UTF-8"?>
<!DOCTYPE svg PUBLIC "-//W3C//DTD SVG 1.1//EN" "http://www.w3.org/Graphics/SVG/1.1/DTD/svg11.dtd">
<svg version="1.1" xmlns="http://www.w3.org/2000/svg" xmlns:xlink="http://www.w3.org/1999/xlink" width="512" height="512"  xml:space="preserve" id="logo2">
  <path id="logo2-oval" stroke="#fee63e" stroke-width="0" stroke-miterlimit="10" fill="#fee63e" d="M 316,93 C 428.5,121.44 502,180.36 502,276.5 502,372.8 433.76,432.69 320,459 291.56,465.58 290.25,467.25 256,469 119,476 9,383.37 9,276.5 9,169.63 123,74 256,84 289.25,86.5 287.88,85.89 316,93 Z M 316,93" />
  <path id="logo2-s" stroke="none" fill="#111111" d="M 342.5,158 C 327.26,158 312.68,160.85 299.28,166.06 290.53,169.45 282.28,173.85 274.67,179.1 243.45,200.66 223,236.69 223,277.5 223,283.1 223.38,288.61 224.13,294 232.92,294 290,294 290,294 291.61,294 293.27,294 294.96,294 301.92,313.25 320.35,327 342,327 363.65,327 382.08,313.25 389.04,294 410.19,294 425.34,294 425.34,294 417.54,333.35 383.19,363 342,363 313.93,363 289.03,349.23 273.55,328 273.55,328 249.05,328 234.16,328 253.19,368.76 294.55,397 342.5,397 408.5,397 462,343.5 462,277.5 462,271.9 461.62,266.39 460.87,261 L 393,261 C 391.82,261 390.61,261 389.39,261 382.71,241.23 364.02,227 342,227 337.14,227 332.44,227.69 327.99,228.99 312.31,233.56 299.81,245.6 294.61,261 273.53,261 258.47,261 258.47,261 263.28,235.1 279.57,213.31 301.79,201.21 308.15,197.75 315,195.08 322.2,193.35 328.55,191.81 335.18,191 342,191 370.95,191 396.51,205.64 411.86,228 411.86,228 433.08,228 451.3,228 432.48,186.7 390.84,158 342.5,158 Z M 502,278 C 502,366.37 430.37,438 342,438 253.63,438 182,366.37 182,278 182,225.81 206.99,179.45 245.66,150.24 L 245.99,150 C 251.58,145.8 257.44,141.96 263.56,138.51 286.74,125.45 313.5,118 342,118 430.37,118 502,189.63 502,278 Z M 502,278" />
  <path id="logo2-c" stroke="none" fill="#111111" d="M 88,230 C 75.3,230 65,240.3 65,253 65,262.23 70.49,270.46 78.8,274.09 L 80.01,274.61 C 80.01,274.61 80,275.93 80,276.01 L 80,317 C 80,321.42 83.58,325 88,325 92.42,325 96,321.42 96,317 96,317 96,276 96,275.94 L 95.98,274.62 97.2,274.09 C 105.51,270.46 111,262.23 111,253 111,241.19 102.06,231.34 90.41,230.12 89.61,230.04 88.81,230 88,230 Z M 315.61,93.19 C 310.65,94.59 305.76,96.13 300.95,97.79 217.02,126.94 158.02,195.97 158.02,276.5 158.02,361.64 223.97,433.93 315.61,459.81 292.22,466.42 267.16,470 241.1,470 112.91,470 9,383.37 9,276.5 9,186.37 82.92,110.63 182.97,89.12 190.52,87.5 198.22,86.18 206.04,85.19 217.47,83.75 229.18,83 241.1,83 267.16,83 292.22,86.58 315.61,93.19 Z M 315.61,93.19" />
</svg>