<?xml version="1.0" encoding="UTF-8"?>
<!DOCTYPE svg PUBLIC "-//W3C//DTD SVG 1.1//EN" "http://www.w3.org/Graphics/SVG/1.1/DTD/svg11.dtd">
<svg version="1.1" xmlns="http://www.w3.org/2000/svg" xmlns:xlink="http://www.w3.org/1999/xlink" width="512" height="512"  xml:space="preserve" id="logo">
  <circle id="logo-bg" stroke="#fee63e" stroke-width="0" stroke-miterlimit="10" fill="#fee63e" cx="256" cy="283" r="222" />
  <path id="logo-cs" stroke="none" fill="#111111" d="M 256.5,102 C 220.64,102 187.21,112.46 159.12,130.5 109.12,162.59 76,218.68 76,282.5 76,291.5 76.66,300.35 77.93,309 L 124.61,309 C 122.9,300.43 122,291.57 122,282.5 122,231.1 150.83,186.44 193.19,163.8 196.8,161.87 200.5,160.11 204.29,158.51 210.21,156.01 216.35,153.93 222.67,152.29 233.48,149.49 244.81,148 256.5,148 295.93,148 331.4,164.97 356,192 356,192 388.85,192 412.71,192 381.46,138.19 323.21,102 256.5,102 Z M 256.5,231 C 252.38,231 248.37,231.48 244.53,232.4 221.86,237.8 205,258.18 205,282.5 205,310.94 228.06,334 256.5,334 275.25,334 291.66,323.98 300.67,309 L 388.39,309 C 376.08,370.59 321.71,417 256.5,417 217.07,417 181.6,400.03 157,373 157,373 124.15,373 100.29,373 131.54,426.81 189.79,463 256.5,463 356.19,463 437,382.19 437,282.5 437,273.5 436.34,264.65 435.07,256 L 334,256 C 315.66,256 300.67,256 300.67,256 291.66,241.02 275.25,231 256.5,231 Z M 478,283 C 478,405.61 378.61,505 256,505 133.39,505 34,405.61 34,283 34,210.48 68.77,146.08 122.56,105.57 L 122.79,105.39 C 133.66,97.23 145.3,90.04 157.59,83.95 187.25,69.26 220.66,61 256,61 378.61,61 478,160.39 478,283 Z M 478,283" />
</svg>