<?xml version="1.0" encoding="UTF-8"?>
<!DOCTYPE svg PUBLIC "-//W3C//DTD SVG 1.1//EN" "http://www.w3.org/Graphics/SVG/1.1/DTD/svg11.dtd">
<svg version="1.1" xmlns="http://www.w3.org/2000/svg" xmlns:xlink="http://www.w3.org/1999/xlink" width="512" height="512"  xml:space="preserve" id="easy">
    <!-- Generated by PaintCode - http://www.paintcodeapp.com -->
    <path id="easy-bezier" stroke="none" fill="#cbcbcb" d="M 181.9,147.61 C 178.55,159.32 190.94,159.51 186.21,147.28 185.39,136.05 182.12,140.71 181.9,147.61 Z M 183.87,160.96 L 183.81,159.9 C 180.61,154.04 180.29,164.75 183.87,160.96 Z M 237.94,158.79 C 219.87,171.96 250.32,163.96 250.42,153.65 250.51,146.53 240.37,158.71 237.91,158.79 L 237.94,158.79 Z M 255.39,151.25 C 251.31,155.5 243.81,168.48 232.16,168.47 212.07,169.07 200.83,186.74 188.2,199.17 178.98,214.32 156.26,220.75 153.44,238.73 155.12,259.13 157.16,279.54 156.82,300.05 162.07,283.21 162.61,265.44 167.26,248.52 170.17,234.06 201.75,254.33 191.46,236.75 170.97,227.78 199.56,236.53 204.94,226.61 210.32,220.59 225.98,208.36 218.2,200.95 203.98,184.07 227.66,205.49 235.42,194.4 248.64,186.02 264.88,169.91 257.54,153.64 L 255.39,151.25 Z M 181.92,164.6 C 176.07,176.05 178.39,189.61 178.36,202.09 L 200.37,178.58 C 199.54,166.63 200.36,153.21 192.21,143.37 182.07,137.6 193.61,164.18 181.92,164.6 Z M 264.15,177.74 C 260.14,195.16 231.94,204.54 240.57,224.35 244.39,231.8 250.76,236.1 259.28,233.74 273.57,232.21 265.11,235.82 256.21,237.07 236.84,234.62 250.91,251.62 258.67,257.44 266.77,264.81 282.72,259.77 266.33,265.65 L 282.37,281.96 C 287.66,286.3 316.81,287.67 297.77,286.93 271.99,289.16 304.97,299.88 305.91,310.04 301.07,326.4 280.3,328.3 265.36,327.99 248.96,323.89 260.64,345.58 267.7,349.85 282.82,364.55 304.85,367.36 323.43,375.87 334.75,380.63 363.8,404.34 366.4,382.59 368.3,359.46 360.22,336.58 345.43,318.45 337.87,306.72 323.95,300.58 315.19,290.56 309.8,272.6 288.74,262.8 285.68,243.16 280.26,218.95 269.39,195.56 269.41,170.45 269.37,167.31 269.5,164.16 268.98,161.04 259,143.4 270.04,171.34 264.15,177.74 Z M 219.89,214.7 C 209.78,225.33 198.65,238.36 210.58,252.08 221.57,254.54 232.55,257.02 243.54,259.45 243.84,250.19 237.03,231.32 231.38,219.43 230.54,217.08 230.16,214.61 229.75,212.17 229.73,196.74 222.53,205.49 219.89,214.7 Z M 174.87,251.05 C 165.31,269.86 165.94,292.06 157.98,311.62 154.58,326.47 144.91,340.9 146.64,356.24 154.85,343.77 146.8,361.07 146.95,368.12 149.17,382.31 155.39,373.87 159.93,366.83 149.65,382.79 164.45,395.38 178.15,402.43 207.72,418.99 229.48,445.18 258.23,462.87 262.78,465.06 265.97,467.98 268.27,471.37 287.1,463.38 309.68,453.79 331.4,444.57 337.76,433.12 338.61,419.26 329.87,407.84 311.58,386.31 280.83,382.81 254.6,375.67 233.26,363.21 230.21,387.97 217.31,398.65 218.23,390.1 240.15,368.19 226.98,357.56 212.55,365.61 199.25,376.94 189.89,390.35 194.51,373.13 212.06,363.2 222.61,349.5 216.85,343.86 198.78,363.85 186.96,364.78 169.37,369.82 188.79,362.45 194.29,358.79 206.59,351.99 229.09,330.93 209.38,320.61 191.12,308.1 225.12,323.32 231.66,314.42 243.7,314.92 242.93,281.64 245.8,301.67 254.36,316.67 276.16,323.74 292.76,318.27 308.17,308.58 282.47,313.94 277.34,304.86 276.22,293.13 264.93,285.15 252.65,281.85 240.35,283.48 210.32,275.94 210.08,291.65 207.54,285.88 192.96,279.06 187.19,290.43 180.2,306.65 176.9,324.21 170.39,340.67 164.26,357.78 170.55,335.78 172.01,329.23 178.98,313.75 170.58,291.89 183.51,280.16 206.3,275.51 229.96,278.71 253.15,278.21 262,279.2 268.99,287 276.69,290.96 285.82,291.26 266.18,273.75 260.84,269.71 240.53,262.78 218.45,260.62 198.14,253.31 193.69,260.81 198.84,257.34 187.03,249.05 183.05,247.86 177.71,247.36 174.87,251.05 Z M 210.08,291.65 C 210.49,292.58 210.59,293.48 210.29,294.27 210.13,293.33 210.07,292.46 210.08,291.65 Z M 289.03,300.54 C 303.14,310.82 293.78,299.43 285.05,295.89 277.63,289.8 285.53,299.31 289.03,300.54 Z M 292.08,306.85 L 288.82,304.8 286.36,303.28 C 265.02,296.45 303.91,319.07 292.08,306.85 Z M 363.81,404.39 C 358.44,414.84 354.36,425.82 350,436.68 355.75,434.24 361.33,431.87 366.64,429.61 365.33,421.25 364.53,412.82 363.81,404.39 Z M 205.87,158.93 C 204.13,174.11 212.24,168.11 221.86,162.05 235.06,154.39 249.79,135.28 265.64,148.4 282.75,155.3 272.77,177.39 278.33,191 284.28,211.52 288.6,232.66 296.72,252.5 302.76,266.86 319.43,273.96 323.19,289.43 338.63,300.06 352.51,313.27 361.28,329.69 375.55,351.94 372.71,378.7 372.3,403.61 371.55,411.5 372.99,426.92 372.99,426.92 372.99,426.92 376.18,434.05 374.53,435.4 372.88,436.74 272.73,481.11 265.41,481.72 264.32,480.27 262.42,473.86 262.42,473.86 262.42,473.86 231.91,453.16 218,441.17 201.05,424.02 179.99,411.76 160.49,397.65 145.9,387.42 143.08,369.95 139,354.51 139.75,338.88 147.98,324.51 148.53,308.72 152.43,285 148,261.27 146.8,237.59 145.55,222.5 162.05,217.12 171.1,207.86 170.17,183.31 174.44,159.03 176.43,134.63 193.44,130.95 204.17,143.92 205.87,158.93 Z M 205.87,158.93" />
    <rect id="easy-rectangle" stroke="none" fill="#cbcbcb" x="-34.5" y="-5" width="69" height="10"  transform="translate(172.93, 68.07) rotate(45)" rx="5" />
    <rect id="easy-rectangle2" stroke="none" fill="#cbcbcb" x="-34.5" y="-5" width="69" height="10"  transform="translate(216, 48.5) rotate(-90)" rx="5" />
    <rect id="easy-rectangle3" stroke="none" fill="#cbcbcb" x="-34.5" y="-5" width="69" height="10"  transform="translate(256.93, 68.07) rotate(-45)" rx="5" />
</svg>