<?xml version="1.0" encoding="UTF-8"?>
<!DOCTYPE svg PUBLIC "-//W3C//DTD SVG 1.1//EN" "http://www.w3.org/Graphics/SVG/1.1/DTD/svg11.dtd">
<svg version="1.1" xmlns="http://www.w3.org/2000/svg" xmlns:xlink="http://www.w3.org/1999/xlink" width="1300" height="1043"  xml:space="preserve" id="cryptoSwift">
    <!-- Generated by PaintCode - http://www.paintcodeapp.com -->
    <path id="cryptoSwift-people" opacity="0.2" stroke="none" fill="rgb(23, 23, 23)" d="M 64.23,1041.9 C 65.15,1041.31 66.56,1040.82 67.37,1040.81 68.18,1040.8 69.6,1040.05 70.52,1039.14 71.7,1037.97 74.72,1037.46 80.75,1037.39 85.46,1037.35 107.05,1036.96 128.73,1036.53 L 168.15,1035.75 170.73,1032.77 173.32,1029.8 173.67,1032.81 174.02,1035.83 186.56,1036.14 C 193.8,1036.32 200.03,1035.96 201.28,1035.3 202.55,1034.62 203.77,1032.43 204.21,1030.02 204.63,1027.75 205.57,1024.65 206.31,1023.13 207.31,1021.1 207.49,1014.02 207,996.27 L 206.34,972.16 203,969.49 C 201.16,968.02 198.03,965.27 196.04,963.36 192.59,960.07 192.11,959.94 185.6,960.52 181.85,960.86 178.21,961.69 177.51,962.37 176.82,963.05 175.71,967.44 175.05,972.12 L 173.86,980.64 172.97,973.17 C 171.92,964.35 173.43,965.01 152.28,964.17 136.8,963.56 121.23,961.61 106.58,958.45 98.75,956.75 97.86,956.25 92.39,950.43 87.51,945.23 86.35,943.16 85.26,937.78 83.89,930.97 82.03,928.21 78.83,928.21 75.17,928.21 75.23,926.61 78.93,925.38 81.49,924.53 82.74,923.36 83,921.55 83.53,917.99 80.5,916.07 74.33,916.05 66.03,916.02 65.16,914.27 72.71,912.78 87.09,909.94 90.42,908.9 90.42,907.23 90.42,906.1 88.9,905.4 85.63,905.03 80.85,904.48 80.82,904.44 78.29,897.3 75.34,888.98 71.06,880.41 65.75,872.17 63.69,868.97 62,865.88 62,865.31 62,864.74 64,863.74 66.45,863.08 68.9,862.43 71.4,861.29 72.01,860.56 74.2,857.9 83.18,839.41 83.18,837.54 83.18,836.49 81.05,834.23 78.44,832.51 75.8,830.77 72.78,827.52 71.61,825.15 L 69.51,820.92 72.44,818.22 C 76.24,814.73 76.14,812.57 71.85,805.73 L 68.32,800.11 71.29,797.04 C 72.92,795.36 74.26,793.33 74.26,792.53 74.26,789.65 78.92,782.96 82.73,780.38 90.94,774.81 104.95,773.23 112.64,777.01 120.27,780.76 121.43,781.96 119.85,784.48 118.68,786.33 119.05,787.9 122.29,794.79 126.46,803.7 126.88,808.48 124.56,820.55 123.61,825.47 122.51,827.78 120.23,829.65 117.25,832.11 117.23,832.21 119.34,833.83 120.53,834.74 122.59,835.49 123.92,835.49 126.75,835.49 133.6,839.87 137.9,844.43 139.56,846.19 141.67,847.63 142.6,847.63 146.71,847.63 153.94,834.98 158.37,820.04 161.83,808.36 164.63,803.79 169.55,801.76 176.91,798.71 190.74,800.82 195.17,805.66 197.79,808.52 201.69,826.55 200.32,829.42 199.73,830.63 198.81,833.11 198.25,834.94 197.7,836.76 196.04,838.85 194.57,839.58 189.75,841.98 189.06,844.06 189.06,856.29 L 189.06,867.85 194.33,872.63 C 200.71,878.44 207.98,882.01 214.7,882.66 219.8,883.15 245.08,880.28 247.23,878.96 249.06,877.84 247.43,869.36 243.69,860.55 241.85,856.2 240.34,852.08 240.34,851.4 240.34,849.91 251.31,848.75 265.56,848.74 278.72,848.73 279,848.44 277.28,836.28 274.99,820.05 275.32,817.83 280.74,812.72 283.35,810.27 289.87,805.41 295.23,801.94 300.59,798.46 305.48,794.68 306.1,793.55 306.71,792.41 307.21,785.19 307.21,777.51 307.21,761.64 308.09,759.11 315.34,754.14 320.04,750.91 322.23,750.73 335.29,752.52 344.92,753.83 349.56,755.79 354.88,760.79 358.59,764.28 359.91,767.73 361.28,777.52 361.7,780.55 362.79,784.46 363.7,786.21 364.9,788.49 365.02,789.72 364.15,790.58 362.04,792.67 362.79,798.71 365.56,802.01 369.66,806.89 370.46,809 371.33,817.28 372.43,827.58 372.88,828.55 380.3,836.48 388.18,844.91 389.72,845.79 393.8,844.2 395.53,843.52 400.36,842.59 404.54,842.11 410.14,841.47 412.86,840.57 414.88,838.7 417.09,836.64 419.29,836.03 426.23,835.54 L 434.83,834.94 435.16,825.28 C 435.37,818.93 434.89,813.66 433.76,809.9 432.82,806.76 432.05,802.94 432.05,801.42 432.05,799.9 430.99,797.53 429.69,796.16 427.59,793.95 427.47,793.27 428.67,790.02 429.41,788.01 430.47,782.4 431.02,777.54 433.1,759.23 433.44,757.72 436.17,754.18 437.67,752.22 440.25,747.99 441.89,744.77 444.64,739.38 445.29,738.83 450.08,737.81 455.37,736.68 460.48,732.97 461.62,729.43 462.11,727.89 463.05,727.6 466,728.08 469.02,728.56 470.05,728.22 471.24,726.34 473.07,723.43 479.14,723.22 487.85,725.78 500.49,729.5 502.93,733.92 501.75,750.95 501.37,756.47 501.51,761.65 502.07,762.46 502.78,763.5 501.95,765.16 499.33,767.98 497.26,770.2 495.26,773.01 494.87,774.23 494,776.96 492.4,778.05 489.25,778.07 487.65,778.09 486.23,779.28 485.06,781.61 483.18,785.33 483.57,786.28 487.86,788.43 491.22,790.11 500.19,805.1 504.42,816.09 506.31,820.99 508.74,826.74 509.82,828.87 L 511.8,832.73 521.46,832.51 C 532.56,832.25 531.39,831.02 533.92,845.64 535.83,856.72 537.38,859.54 543.37,862.87 547.27,865.04 549.33,865.29 563.37,865.29 572.32,865.29 580.38,864.76 582.17,864.05 583.89,863.37 591.45,862.56 598.96,862.25 610.04,861.79 613.54,862.03 617.49,863.52 621.2,864.93 625.24,865.29 634.37,865.05 L 646.38,864.74 646.77,850.25 C 647.06,839.61 646.79,835.45 645.77,834.62 645.01,833.99 641.42,832.72 637.8,831.79 631.39,830.13 629.38,828.71 629.35,825.79 629.34,825.01 627.56,823.34 625.4,822.08 623.24,820.82 620.96,818.83 620.33,817.67 619.29,815.74 618.28,815.61 608.93,816.2 603.29,816.56 597.55,817.09 596.17,817.36 594.24,817.75 593.67,817.36 593.67,815.68 593.67,814.48 592.58,812.92 591.26,812.21 589.11,811.07 589.05,810.83 590.7,809.91 591.72,809.35 592.55,807.97 592.55,806.85 592.55,804.63 590.46,803.48 586.43,803.48 584.07,803.48 583.96,803.24 585.13,800.73 586.49,797.83 587.14,797.68 597.09,797.94 603.54,798.11 605.3,797.14 606.12,792.99 606.52,791 606.99,791.18 610.98,794.87 613.41,797.12 616.88,800.29 618.68,801.93 622.18,805.11 633.41,810.1 637.05,810.1 638.25,810.1 639.5,810.53 639.82,811.05 640.15,811.57 643.12,812.31 646.42,812.7 649.72,813.08 654.24,814.14 656.45,815.06 660.94,816.92 670.79,817.28 673.79,815.69 674.87,815.12 676.64,812.51 677.73,809.89 678.82,807.28 680.42,803.5 681.27,801.51 683.31,796.78 683.3,781.57 681.26,776.18 677.36,765.88 677.29,758.92 681.05,755.47 683.14,753.55 683.95,751.7 683.95,748.83 683.95,746.64 684.51,742.66 685.19,739.98 686.23,735.88 687.32,734.55 692.13,731.49 697.22,728.26 698.69,727.87 705.66,727.9 715.52,727.94 719.15,729.69 723.91,736.71 L 727.64,742.22 726.87,755.55 726.1,768.88 730.38,773.89 C 732.74,776.65 736.47,780.04 738.67,781.42 741.98,783.48 743.11,785.24 745.11,791.38 746.44,795.48 748.43,800 749.53,801.43 753.46,806.55 755.52,814.28 755.46,823.64 755.42,828.59 755.93,833.28 756.59,834.06 757.25,834.85 759.38,835.49 761.34,835.49 767.06,835.49 768.74,837.44 767.53,842.66 766.22,848.27 764.57,863.63 765.1,865.2 765.36,865.98 771.03,866.39 781.53,866.39 799.65,866.39 798.52,866.95 800.96,856.69 802.04,852.12 803.21,850.19 806.31,847.86 811.9,843.64 814.32,841.08 819.11,834.27 827.67,822.13 834.06,815.48 838.13,814.47 839.46,814.14 841.22,812.5 842.04,810.82 842.85,809.13 845.99,806.26 849,804.42 852.02,802.58 854.48,800.67 854.48,800.16 854.48,799.65 856.95,798.43 859.97,797.44 867.05,795.11 868.52,793.41 866.9,789.41 864.99,784.72 865.96,756.31 868.16,752.08 869.85,748.86 879.15,739.57 880.93,739.35 881.4,739.29 886.48,739.07 892.22,738.85 901.72,738.49 902.7,738.65 903.2,740.56 903.51,741.72 905.01,743.48 906.53,744.47 913.76,749.15 915.75,763.72 911.33,779.55 910,784.3 909.19,788.87 909.51,789.71 910.31,791.77 917.55,795.27 923.03,796.25 929.94,797.48 940.22,803.4 943.21,807.87 946.25,812.42 950.66,824.7 952.59,834.01 954.61,843.71 955.13,844.32 961.46,844.32 L 966.93,844.32 966.72,850.67 966.5,857.01 972.91,857.34 C 978.5,857.63 979.93,857.25 984.18,854.36 989.89,850.47 1003.29,836.43 1005.7,831.82 1007.12,829.09 1013.03,820 1018.77,811.69 1020.41,809.32 1024.48,807.84 1035.23,805.72 1038.9,804.99 1041.81,803.77 1042.19,802.8 1042.54,801.89 1042.32,798.9 1041.7,796.15 1041.08,793.41 1040.13,785.12 1039.59,777.73 L 1038.61,764.29 1042.58,758.43 C 1047.18,751.66 1050.86,749.44 1058.9,748.62 1064.01,748.1 1065.07,748.37 1068.28,751.05 1070.28,752.71 1072.66,755.51 1073.58,757.26 1075.89,761.69 1076.82,776.36 1075.18,782.51 1072.12,793.96 1072.19,794.36 1078.06,800.27 1081.03,803.25 1084.04,805.69 1084.77,805.69 1087.72,805.69 1106.1,815.77 1109.95,819.5 1114.36,823.77 1114.58,824.57 1115.88,841.53 1116.25,846.37 1117.08,850.96 1117.73,851.74 1118.54,852.7 1122.24,853.15 1129.37,853.15 1137.54,853.15 1139.82,853.48 1139.82,854.68 1139.82,855.52 1138.33,859.37 1136.5,863.23 1134.68,867.1 1132.87,871.83 1132.48,873.75 1131.86,876.84 1132.17,877.45 1135.1,878.95 1136.93,879.89 1142.05,881.41 1146.49,882.32 1153.45,883.76 1154.97,883.77 1157.58,882.44 1163.02,879.65 1163.69,877.94 1163.82,866.55 1164.11,840.99 1167.95,828.15 1177.81,819.74 1180.82,817.17 1183.29,814.21 1183.29,813.16 1183.29,811.18 1179.32,808.71 1174.13,807.49 1171.77,806.92 1170.84,805.79 1169.9,802.31 1169.23,799.85 1167.64,796.81 1166.37,795.55 1164.26,793.46 1164.16,792.76 1165.28,787.61 1165.95,784.5 1166.81,779.99 1167.19,777.59 1167.99,772.46 1171.04,766.17 1174.02,763.51 1178.67,759.35 1186.93,756.71 1195.6,756.64 L 1204,756.57 1210.37,761.94 C 1216.33,766.98 1216.73,767.63 1216.73,772.2 1216.73,777.29 1215.37,780.34 1207.8,792.28 1202.87,800.04 1202.54,801.44 1205.12,803.56 1206.09,804.36 1207.62,806.83 1208.52,809.05 1209.43,811.29 1212.88,815.42 1216.29,818.33 1219.66,821.22 1223.76,825.58 1225.39,828.02 1228.14,832.13 1228.39,833.51 1228.81,846.76 L 1229.26,861.07 1232.68,863.13 C 1236.72,865.56 1254.07,869.71 1260.22,869.71 1265.48,869.71 1266.7,871.3 1263.86,874.48 1259.23,879.68 1253.44,891.85 1248.34,907.14 1245.22,916.49 1245.1,916.27 1254.75,918.3 1261.94,919.81 1262.48,921.58 1255.75,921.58 1249.72,921.58 1245.88,923.27 1245.15,926.24 1244.81,927.62 1244.11,933.36 1243.6,938.99 1242.93,946.35 1242.1,949.85 1240.65,951.44 1235.9,956.63 1208.33,960.89 1187.75,959.61 1180.09,959.14 1170.81,958.7 1167.13,958.65 L 1160.44,958.56 1159.86,967.94 C 1159.21,978.5 1157.86,976.7 1157.38,964.63 L 1157.1,957.46 1147.16,957.13 C 1140.3,956.91 1136.97,957.23 1136.39,958.14 1135.38,959.77 1135.86,963.56 1139.27,980.64 1140.72,987.92 1142.24,997.32 1142.64,1001.51 1143.54,1010.8 1145.69,1018.2 1148.32,1021.08 1149.47,1022.33 1150.8,1026.58 1151.5,1031.19 1152.57,1038.26 1152.99,1039.18 1155.31,1039.51 1156.74,1039.71 1158.43,1039.36 1159.07,1038.73 1159.82,1037.98 1160.92,1037.95 1162.21,1038.64 1163.33,1039.23 1186.85,1040.01 1216.1,1040.42 1244.65,1040.82 1268,1041.57 1268,1042.08 1268,1042.58 1164.05,1042.96 1037,1042.91 909.95,1042.87 806.62,1042.58 807.39,1042.27 808.19,1041.95 808.52,1040.7 808.17,1039.32 807.63,1037.18 808.01,1036.93 811.8,1036.93 L 816.03,1036.93 815.76,997.9 C 815.48,957.35 814.79,950.28 811.14,950.28 809.4,950.28 809.01,951.59 808.4,959.39 808,964.4 807.68,977.81 807.68,989.19 807.67,1003.95 807.3,1009.89 806.4,1009.89 805.46,1009.89 805.24,998.65 805.56,967.11 L 806,924.34 800.42,923.61 C 797.36,923.21 788.48,922.84 780.7,922.78 769.36,922.71 766.36,923.01 765.63,924.3 765.13,925.19 765.06,930.03 765.48,935.06 766.9,951.89 766.63,958.59 764.48,960.5 762.77,962.03 750.6,967.19 750.28,966.54 750.21,966.4 748.8,964.63 747.15,962.61 744.58,959.48 744.14,957.91 744.14,951.92 744.14,948.05 743.63,944.58 743,944.2 741.34,943.18 730.05,944.78 727.9,946.34 726.63,947.26 725.79,950.34 725.16,956.42 723.94,968.24 721.99,979.59 720.15,985.6 719.31,988.33 718.31,993.55 717.93,997.19 717.55,1000.84 716.45,1006.41 715.5,1009.57 713.01,1017.83 713.93,1025.96 718.06,1032.05 L 721.37,1036.93 733.99,1037.24 C 742.33,1037.45 747.13,1037.12 748.16,1036.28 749.34,1035.31 750.11,1035.34 751.4,1036.39 753.01,1037.72 758.19,1039.14 766.15,1040.44 778.23,1042.42 762.71,1043 698,1043 L 626.22,1043 626.21,1040.52 C 626.2,1039.15 625.82,1015.46 625.36,987.86 624.67,946.92 624.17,936.36 622.67,930.46 L 620.83,923.24 599.35,922.94 C 578.46,922.65 577.85,922.7 577.26,924.92 L 576.66,927.19 575.03,924.88 C 573.73,923.05 572.43,922.64 568.76,922.9 564.33,923.22 564.14,923.39 564.29,926.76 564.5,931.59 568.7,937.26 571.74,936.82 573.04,936.64 574.69,935.31 575.41,933.88 577.47,929.78 578.27,950.28 577.86,996.25 577.54,1031.74 577.3,1036.37 575.63,1038.19 574.6,1039.32 573.73,1040.74 573.68,1041.34 573.63,1042.08 487.44,1042.54 318.08,1042.71 152.58,1042.88 63.15,1042.59 64.23,1041.9 Z M 939.75,1039.62 C 943.43,1038.98 949.2,1038.36 952.57,1038.25 958.97,1038.02 959.87,1036.91 957.7,1031.9 957.16,1030.67 957.99,1029.73 960.61,1028.59 L 964.27,1027 964.57,995.11 964.86,963.23 961.95,958.3 C 958.23,952.02 955.35,949.18 952.7,949.18 949.45,949.18 946.99,958.14 946.99,970.02 946.99,979.16 945.97,982.9 944.22,980.1 943.15,978.4 927.46,978.68 925.99,980.43 925.32,981.23 924.41,984.83 923.96,988.44 L 923.16,994.99 921.98,987.81 C 920.83,980.84 920.7,980.63 917.24,980.3 914.75,980.06 912.96,980.67 911.25,982.37 909.11,984.49 908.89,985.57 909.48,991.17 910.12,997.2 910.79,999.23 915.9,1010.71 919.05,1017.79 922.23,1016.7 922.65,1008.42 922.92,1002.98 924.41,1019.3 924.56,1029.42 924.75,1041.33 925.8,1042.04 939.75,1039.62 Z M 1062.89,1036.47 L 1063.53,1033.8 1065.48,1036.74 C 1067.65,1040.03 1070.66,1040.44 1077.96,1038.47 1083.01,1037.11 1091.31,1029.14 1096.08,1021.1 1099.8,1014.81 1101.08,999.46 1098.25,995.17 1096.84,993.04 1096.63,990.23 1097.15,979.91 1097.87,965.42 1097.12,963.02 1091.59,961.99 1089.55,961.61 1085.96,959.51 1083.6,957.31 1079.48,953.46 1079.1,953.33 1072.87,953.89 1069.32,954.21 1065.87,954.8 1065.22,955.2 1064.56,955.6 1063.98,958.51 1063.92,961.66 1063.86,964.81 1063.45,970.12 1063.02,973.46 1062.25,979.41 1062.22,979.31 1061.39,968.49 1060.92,962.42 1060.33,956.84 1060.09,956.08 1059.38,953.89 1046.19,954.28 1042.82,956.58 1039.33,958.96 1037.58,961.21 1036.76,964.39 1036.4,965.77 1032.36,974.78 1027.77,984.42 1023.19,994.05 1019.44,1003.17 1019.44,1004.68 1019.44,1007.51 1026.59,1015.5 1033.88,1020.84 1038.36,1024.11 1041.92,1031.61 1040.39,1034.53 1038.06,1038.97 1039.9,1039.79 1051.42,1039.45 1061.85,1039.15 1062.28,1039.04 1062.89,1036.47 Z M 895.76,1036.91 C 899.82,1034.83 900.53,1032.16 900.01,1020.83 899.66,1013.15 899.24,1011.59 897.09,1009.87 895.71,1008.76 894.08,1007.69 893.47,1007.49 892.86,1007.29 891.84,1003.89 891.19,999.95 889.75,991.17 888.44,987.81 886.45,987.81 884.27,987.81 881.65,991.12 880.77,994.99 880.35,996.81 879.72,999.44 879.36,1000.85 878.9,1002.67 879.54,1004.25 881.59,1006.37 884.77,1009.65 891.26,1022.96 890.56,1024.75 890.32,1025.38 887.75,1027.13 884.85,1028.65 879.38,1031.51 877.85,1034.22 880.16,1036.98 881.96,1039.12 891.53,1039.08 895.76,1036.91 Z M 922.24,1031.96 C 922.71,1023.24 921.16,1021.54 913.67,1022.56 906.92,1023.48 905.89,1024.95 907.95,1030.72 910.22,1037.1 912.24,1038.74 917.4,1038.36 L 921.92,1038.03 922.24,1031.96 Z M 343.73,1035.55 C 344.86,1032.72 344.59,1024.56 343.13,1017.61 342.43,1014.27 341.29,1007.57 340.58,1002.71 339.88,997.86 338.18,990.9 336.8,987.26 335.42,983.62 333.93,978.66 333.47,976.25 333.02,973.83 331.42,967.99 329.91,963.27 326.91,953.86 324.13,950.97 318.71,951.58 L 315.57,951.94 314.84,988.91 C 314.44,1009.25 313.8,1028.16 313.43,1030.94 313.06,1033.71 313.1,1036.32 313.52,1036.73 313.93,1037.14 320.72,1037.48 328.61,1037.48 341.23,1037.48 343.04,1037.25 343.73,1035.55 Z M 456.21,1033.89 C 458.2,1030.49 458.26,1028.18 457.49,988.12 456.98,961.38 456.24,945.12 455.47,943.69 454.54,941.96 453.15,941.45 449.38,941.45 442.53,941.45 440.96,942.28 440.96,945.92 440.96,950.01 438.98,951.12 436.91,948.19 434.98,945.46 432.56,945.17 431.63,947.57 431.27,948.5 431.28,952.93 431.66,957.41 432.28,964.65 432.1,965.88 429.97,968.55 428.66,970.2 427.59,972.02 427.59,972.6 427.59,973.18 426.04,975.79 424.15,978.39 421.03,982.7 420.42,985.04 417.49,1003.96 415.71,1015.42 414.25,1026.65 414.24,1028.93 L 414.21,1033.07 420.62,1033.11 C 424.15,1033.14 428.97,1033.85 431.34,1034.69 433.72,1035.52 436.3,1035.96 437.08,1035.67 437.87,1035.37 438.84,1035.65 439.25,1036.3 439.65,1036.95 443.16,1037.48 447.05,1037.48 453.85,1037.48 454.2,1037.35 456.21,1033.89 Z M 496.41,1036.1 C 497.02,1035.34 497.78,1031.69 498.1,1027.97 498.42,1024.26 499.74,1018.86 501.03,1015.97 503.24,1011.03 503.38,1008.83 503.38,979.91 503.38,956.25 503.06,949 501.99,948.64 501.22,948.39 495.08,947.61 488.34,946.91 462.92,944.29 464.84,944.3 462.26,946.86 459.91,949.18 459.89,949.63 460.18,992.51 L 460.47,1035.83 469.94,1036.45 C 488.05,1037.64 495.26,1037.54 496.41,1036.1 Z M 574.85,1035.03 C 576.65,1031.69 575.53,947.22 573.63,943.71 571.39,939.57 567.86,941.25 564.4,948.07 561.26,954.27 555.37,963.71 552.74,966.79 551.93,967.73 549.01,971.23 546.24,974.57 543.47,977.9 539.77,982.13 538.01,983.95 530.91,991.32 530.44,996.53 536.54,1000.3 538.84,1001.71 541.6,1003.19 542.67,1003.59 545.36,1004.57 545.12,1008.44 542.28,1009.95 540.94,1010.66 536.51,1011.03 531.97,1010.81 524.37,1010.46 523.99,1010.55 523.64,1012.99 523.39,1014.72 525.24,1018.12 529.41,1023.61 538.35,1035.37 543.06,1037.48 560.41,1037.48 572.81,1037.48 573.6,1037.35 574.85,1035.03 Z M 654.99,1033.89 C 657.55,1031.92 661.21,1027.46 663.13,1023.98 666.36,1018.13 666.49,1017.51 664.81,1015.85 663.28,1014.33 662.39,1014.25 659.01,1015.36 656.81,1016.08 654.46,1016.33 653.78,1015.91 652.22,1014.96 648.63,1006.82 646.02,998.3 638.06,972.35 633.11,960.33 630.35,960.26 628.77,960.22 628.49,964.4 627.8,997.02 627.38,1017.26 627.36,1034.64 627.75,1035.65 628.34,1037.18 630.23,1037.48 639.4,1037.48 650.04,1037.48 650.46,1037.38 654.99,1033.89 Z M 858.97,1032.3 C 862.37,1026.99 863.2,1022.72 861.1,1021.43 859.44,1020.42 856.29,1023.52 853.3,1029.09 848.54,1037.99 853.52,1040.8 858.97,1032.3 Z M 288.75,1035.27 C 302.43,1035.27 307.3,1034.9 308.91,1033.73 310.82,1032.35 311.15,1029.92 312.03,1010.83 312.57,999.08 312.66,980.87 312.22,970.35 L 311.43,951.24 308.48,950.11 C 304.94,948.76 288.04,948.47 282.96,949.67 280.13,950.35 278.05,949.92 273.49,947.72 270.27,946.18 266.26,944.57 264.56,944.16 258.09,942.59 254.83,934.08 254.83,918.77 254.83,909.54 252.84,906.13 247.46,906.13 245.86,906.13 240.47,905.15 235.48,903.95 230.49,902.75 221.64,900.75 215.82,899.51 207.78,897.79 203.22,896.05 196.92,892.31 187.73,886.84 186.66,886.57 184.52,889.12 183.28,890.61 183.46,891.65 185.69,895.81 187.14,898.52 189.29,901.24 190.47,901.87 191.65,902.5 198.1,903.72 204.8,904.59 211.5,905.46 218.85,906.85 221.13,907.68 223.42,908.51 227.39,909.75 229.95,910.44 235.38,911.9 237.22,914.42 244.56,930.41 253.19,949.22 254.83,953.47 254.83,957.15 254.84,962.73 256.98,969.09 260.59,974.28 263.9,979.06 272.95,985.1 278.22,986.05 279.76,986.33 282.9,986.86 285.2,987.23 291.14,988.2 290.88,991.36 284.64,993.96 281.27,995.37 276.86,995.96 269.32,996.02 259.49,996.08 258.73,996.25 258.73,998.3 258.73,999.81 260.25,1001.23 263.61,1002.82 269.96,1005.84 271.2,1008.02 268.24,1010.96 266.45,1012.73 264.52,1013.2 259.07,1013.2 253.1,1013.2 251.74,1013.6 249.05,1016.15 L 245.93,1019.11 241.43,1015.52 C 235.59,1010.87 233.19,1011.3 232.76,1017.07 232.38,1022.29 235.36,1026.92 242.34,1031.93 246.25,1034.73 248.07,1035.24 255.59,1035.59 260.38,1035.82 265.74,1035.84 267.5,1035.64 269.27,1035.44 278.83,1035.27 288.75,1035.27 Z M 1125.06,1025.06 C 1128.45,1021.48 1129.79,1017.23 1129.77,1010.09 1129.75,1001.53 1128,998.38 1123.02,997.97 1117.11,997.47 1114.91,1000.51 1114.37,1009.92 1114.02,1016.08 1114.4,1018.46 1116.39,1022.53 1119.15,1028.19 1121.47,1028.86 1125.06,1025.06 Z M 984.47,1022.44 C 987.16,1020.88 989.35,1019.02 989.35,1018.29 989.35,1017.56 987.41,1013.01 985.04,1008.18 982.67,1003.35 979.65,996.67 978.34,993.33 975.45,986.02 971.28,980.52 969.47,981.63 967.73,982.69 967.66,1021.22 969.39,1024.43 970.43,1026.35 971.3,1026.58 975.11,1025.98 977.58,1025.59 981.79,1024 984.47,1022.44 Z M 839.39,1019.76 C 845.51,1013.28 845.54,1014.27 838.53,996.73 831.66,979.55 830.59,980.46 830.21,1003.78 830.04,1014.07 830.15,1023.14 830.46,1023.92 831.48,1026.57 834.1,1025.35 839.39,1019.76 Z M 698.32,1011.68 C 699.02,1010.84 700.19,1006.14 700.91,1001.23 702.02,993.68 701.94,990.81 700.38,982.61 699.36,977.27 698.25,967.71 697.91,961.35 697.56,955 696.84,949.36 696.3,948.83 695.02,947.56 681,945.18 669,944.19 658.12,943.29 657.16,943.94 659.82,950.34 660.69,952.43 661.77,956.38 662.21,959.11 662.65,961.84 664.02,965.18 665.27,966.52 667.37,968.78 670.72,975.81 674.5,985.89 676.5,991.23 681.52,998.37 686.72,1003.26 688.98,1005.39 691.55,1008.49 692.43,1010.16 694.19,1013.48 696.35,1014.04 698.32,1011.68 Z M 375.02,997.24 C 377.18,995.17 377.72,993.26 378.23,986.01 378.98,975.14 378.26,974.32 368.33,974.79 L 361.27,975.12 361.4,979.53 C 361.51,983.51 362.17,988.23 363.57,995.18 364.81,1001.3 369.83,1002.2 375.02,997.24 Z M 243.68,976.7 C 243.68,972.2 242.14,968.05 239.94,966.64 237.66,965.17 236.79,967.16 237.51,972.21 238.6,979.91 239.17,981.19 241.53,981.19 243.3,981.19 243.68,980.4 243.68,976.7 Z M 1007.65,975.39 C 1007.93,974.03 1008.46,971.5 1008.83,969.78 1010.04,964.13 1008.73,962.42 1003.17,962.42 996.57,962.42 995.89,964.43 999.88,971.99 1003.26,978.36 1006.73,979.89 1007.65,975.39 Z M 866.45,970.98 C 867.9,969.16 872.32,954.45 872.32,951.46 872.32,948.63 869.69,947.54 860.46,946.53 854.94,945.93 853.26,946.13 851.82,947.56 849.02,950.33 849.69,954.46 853.74,959.48 855.78,962.01 858.58,965.94 859.96,968.22 862.55,972.5 864.56,973.36 866.45,970.98 Z M 523.09,965.37 C 524.2,963.95 526.58,959.75 528.36,956.04 532.05,948.36 531.61,946.88 524.99,944.72 518.84,942.71 517.87,944.3 517.87,956.3 517.87,968.7 518.96,970.59 523.09,965.37 Z M 814.7,936.44 C 816.07,934.57 816.6,932.21 816.37,929.02 816.05,924.63 815.82,924.34 812.68,924.34 L 809.34,924.34 809.01,931.79 C 808.72,938.36 808.92,939.24 810.68,939.21 811.78,939.19 813.59,937.94 814.7,936.44 Z M 961.89,930.33 C 966.68,926.61 965.27,920.48 959.63,920.48 955.48,920.48 952.99,928.18 956.13,931.3 957.94,933.08 958.48,932.99 961.89,930.33 Z M 1162.2,922.77 C 1164.38,920.61 1165.21,918.92 1164.72,917.65 1164.07,915.97 1162.77,915.83 1153.3,916.46 1147.42,916.84 1139.32,917.16 1135.3,917.16 1126.78,917.17 1122.88,919.1 1124.88,922.32 1126.66,925.2 1129.9,925.77 1145.2,925.89 L 1158.94,926 1162.2,922.77 Z M 847.93,866.78 C 848.85,865.68 849.46,862.3 849.46,858.25 849.46,850.52 847.52,849.01 843.13,853.35 841.72,854.75 838.05,857.18 834.98,858.75 830.66,860.96 829.4,862.2 829.4,864.23 829.4,867.31 832.1,868.33 840.69,868.49 844.74,868.57 846.85,868.07 847.93,866.78 Z M 806,1026.44 C 806.38,1025.84 806.91,1025.34 807.18,1025.34 807.45,1025.34 807.67,1025.84 807.67,1026.44 807.67,1027.05 807.14,1027.55 806.49,1027.55 805.84,1027.55 805.62,1027.05 806,1026.44 Z M 806,1026.44" />
    <g id="cryptoSwift-group2">
        <circle id="cryptoSwift-oval14" stroke="rgb(0, 0, 0)" stroke-width="10" stroke-miterlimit="10" fill="rgb(255, 255, 255)" cx="336" cy="134" r="70" />
        <g id="cryptoSwift-group" transform="translate(450, 129)" >
            <circle id="cryptoSwift-oval3" stroke="rgb(0, 0, 0)" stroke-width="14" stroke-miterlimit="10" fill="none" cx="160" cy="169" r="150" />
            <g id="cryptoSwift-group4" transform="scale(0.62, 0.62)" >
                <g id="cryptoSwift-group5">
                    <circle id="cryptoSwift-bg" stroke="none" fill="none" cx="256" cy="270" r="225" />
                    <path id="cryptoSwift-cs" stroke="none" fill="rgb(0, 0, 0)" d="M 256.5,89 C 220.64,89 187.21,99.46 159.12,117.5 109.12,149.59 76,205.68 76,269.5 76,278.5 76.66,287.35 77.93,296 L 124.61,296 C 122.9,287.43 122,278.57 122,269.5 122,218.1 150.83,173.44 193.19,150.8 196.8,148.87 200.5,147.11 204.29,145.51 210.21,143.01 216.35,140.93 222.67,139.29 233.48,136.49 244.81,135 256.5,135 295.93,135 331.4,151.97 356,179 356,179 388.85,179 412.71,179 381.46,125.19 323.21,89 256.5,89 Z M 256.5,218 C 252.38,218 248.37,218.48 244.53,219.4 221.86,224.8 205,245.18 205,269.5 205,297.94 228.06,321 256.5,321 275.25,321 291.66,310.98 300.67,296 L 388.39,296 C 376.08,357.59 321.71,404 256.5,404 217.07,404 181.6,387.03 157,360 157,360 124.15,360 100.29,360 131.54,413.81 189.79,450 256.5,450 356.19,450 437,369.19 437,269.5 437,260.5 436.34,251.65 435.07,243 L 334,243 C 315.66,243 300.67,243 300.67,243 291.66,228.02 275.25,218 256.5,218 Z M 478,270 C 478,392.61 378.61,492 256,492 133.39,492 34,392.61 34,270 34,197.48 68.77,133.08 122.56,92.57 L 122.79,92.39 C 133.66,84.23 145.3,77.04 157.59,70.95 187.25,56.26 220.66,48 256,48 378.61,48 478,147.39 478,270 Z M 478,270" />
                    <path id="cryptoSwift-insideCs" stroke="none" fill="rgb(255, 204, 0)" d="M 256.5,89 C 220.64,89 187.21,99.46 159.12,117.5 109.12,149.59 76,205.68 76,269.5 76,278.5 76.66,287.35 77.93,296 L 124.61,296 C 122.9,287.43 122,278.57 122,269.5 122,218.1 150.83,173.44 193.19,150.8 196.8,148.87 200.5,147.11 204.29,145.51 210.21,143.01 216.35,140.93 222.67,139.29 233.48,136.49 244.81,135 256.5,135 295.93,135 331.4,151.97 356,179 L 412.71,179 C 381.46,125.19 323.21,89 256.5,89 Z M 256.5,218 C 252.38,218 248.37,218.48 244.53,219.4 221.86,224.8 205,245.18 205,269.5 205,297.94 228.06,321 256.5,321 275.25,321 291.66,310.98 300.67,296 L 388.39,296 C 376.08,357.59 321.71,404 256.5,404 217.07,404 181.6,387.03 157,360 L 100.29,360 C 131.54,413.81 189.79,450 256.5,450 356.19,450 437,369.19 437,269.5 437,260.5 436.34,251.65 435.07,243 L 334,243 300.67,243 C 291.66,228.02 275.25,218 256.5,218 Z M 256.5,218" />
                </g>
            </g>
        </g>
        <circle id="cryptoSwift-oval" stroke="rgb(0, 0, 0)" stroke-width="10" stroke-miterlimit="10" fill="rgb(255, 255, 255)" cx="442" cy="570" r="70" />
        <g id="cryptoSwift-group3" transform="translate(392, 520) scale(0.2, 0.2)" >
            <path id="cryptoSwift-bezier6" stroke="none" fill="rgb(0, 0, 0)" d="M 255.5,82.42 C 227.87,82.42 202.93,93.89 185.15,112.32 183.52,114.01 181.96,115.75 180.45,117.55 168.37,132.01 160.39,150.02 158.3,169.79 L 157.75,169.79 C 157.75,169.79 157.75,173.57 157.75,180.22 157.75,188.04 157.75,199.84 157.75,214.12 L 353.25,214.12 C 353.25,199.84 353.25,188.04 353.25,180.22 353.25,173.57 353.25,169.79 353.25,169.79 L 352.7,169.79 352.68,169.59 C 347.39,120.58 305.9,82.42 255.5,82.42 Z M 385.42,161.96 L 385.83,161.96 C 385.83,161.96 385.83,165.74 385.83,172.4 385.83,180.92 385.83,194.17 385.83,210.21 L 411.9,210.21 C 433.49,210.21 451,227.72 451,249.33 L 451,431.88 C 451,453.49 433.49,471 411.9,471 L 99.1,471 C 77.51,471 60,453.49 60,431.88 L 60,249.33 C 60,227.72 77.51,210.21 99.1,210.21 L 125.17,210.21 C 125.17,194.17 125.17,180.92 125.17,172.4 125.17,165.74 125.17,161.96 125.17,161.96 L 125.58,161.96 C 127.6,136.36 137.02,112.84 151.7,93.53 152.05,93.07 152.41,92.61 152.76,92.15 153.62,91.05 154.49,89.97 155.38,88.91 179.29,60.24 215.26,42 255.5,42 323.97,42 380.11,94.83 385.42,161.96 Z M 385.42,161.96" />
        </g>
        <circle id="cryptoSwift-oval2" stroke="rgb(0, 0, 0)" stroke-width="6" stroke-miterlimit="10" fill="none" cx="556" cy="715" r="10" />
        <circle id="cryptoSwift-oval4" stroke="rgb(0, 0, 0)" stroke-width="6" stroke-miterlimit="10" fill="none" cx="777" cy="408" r="10" />
        <circle id="cryptoSwift-oval5" stroke="rgb(0, 0, 0)" stroke-width="4" stroke-miterlimit="10" fill="rgb(0, 0, 0)" cx="854" cy="287" r="10" />
        <circle id="cryptoSwift-oval6" stroke="rgb(0, 0, 0)" stroke-width="6" stroke-miterlimit="10" fill="none" cx="938" cy="255" r="10" />
        <circle id="cryptoSwift-oval7" stroke="rgb(0, 0, 0)" stroke-width="6" stroke-miterlimit="10" fill="none" cx="1035" cy="214" r="10" />
        <circle id="cryptoSwift-oval8" stroke="rgb(0, 0, 0)" stroke-width="6" stroke-miterlimit="10" fill="none" cx="1115" cy="362" r="10" />
        <circle id="cryptoSwift-oval9" stroke="rgb(0, 0, 0)" stroke-width="6" stroke-miterlimit="10" fill="none" cx="312" cy="343" r="10" />
        <circle id="cryptoSwift-oval10" stroke="rgb(0, 0, 0)" stroke-width="4" stroke-miterlimit="10" fill="rgb(0, 0, 0)" cx="567" cy="520" r="10" />
        <circle id="cryptoSwift-oval11" stroke="rgb(0, 0, 0)" stroke-width="10" stroke-miterlimit="10" fill="rgb(255, 255, 255)" cx="686" cy="650" r="65" />
        <circle id="cryptoSwift-oval12" stroke="rgb(0, 0, 0)" stroke-width="10" stroke-miterlimit="10" fill="rgb(255, 255, 255)" cx="975" cy="448" r="95" />
        <rect id="cryptoSwift-rectangle" stroke="none" fill="rgb(0, 0, 0)" x="1070" y="443" width="230" height="10" />
        <rect id="cryptoSwift-rectangle2" stroke="none" fill="rgb(0, 0, 0)" x="1125" y="357" width="175" height="10" />
        <rect id="cryptoSwift-rectangle3" stroke="none" fill="rgb(0, 0, 0)" x="1045" y="209" width="255" height="10" />
        <rect id="cryptoSwift-rectangle4" stroke="none" fill="rgb(0, 0, 0)" x="755" y="250" width="173" height="10" />
        <rect id="cryptoSwift-rectangle5" stroke="none" fill="rgb(0, 0, 0)" x="760" y="282" width="87" height="10" />
        <rect id="cryptoSwift-rectangle6" stroke="none" fill="rgb(0, 0, 0)" x="322" y="338" width="145" height="10" />
        <rect id="cryptoSwift-rectangle7" stroke="none" fill="rgb(0, 0, 0)" x="-36.5" y="-5" width="73" height="10"  transform="translate(567, 477.5) rotate(-90)" />
        <rect id="cryptoSwift-rectangle8" stroke="none" fill="rgb(0, 0, 0)" x="-71.62" y="-5" width="143.24" height="10"  transform="translate(653.54, 514.29) rotate(-102.63)" />
        <g id="cryptoSwift-laptop">
            <path id="cryptoSwift-bezel3" fill-rule="evenodd" stroke="rgb(0, 0, 0)" stroke-width="2" stroke-miterlimit="4" fill="rgb(254, 254, 254)" d="M 1027.25,407 L 921.83,407 C 918.96,407 916.52,409.35 916.52,412.26 L 916.52,481.44 1032.57,481.44 1032.57,412.26 C 1032.57,409.35 1030.13,407 1027.25,407 Z M 1027.25,407" />
            <ellipse id="cryptoSwift-webcam" stroke="rgb(0, 0, 0)" stroke-width="2" stroke-miterlimit="10" fill="none" cx="975" cy="411.5" rx="1" ry="1.5" />
            <g id="cryptoSwift-bottom">
                <path id="cryptoSwift-shape" fill-rule="evenodd" stroke="rgb(0, 0, 0)" stroke-width="2" stroke-miterlimit="4" fill="rgb(253, 253, 253)" d="M 1037.2,488.01 L 911.9,488.01 C 905.39,488.01 901,485.63 901,484.62 L 901,481.55 C 901,481.25 901.28,481 901.64,481 L 1047.47,481 C 1047.82,481 1048.1,481.25 1048.1,481.55 L 1048.1,484.74 C 1048.1,485.54 1044.7,488.01 1037.2,488.01 Z M 1037.2,488.01" />
                <path id="cryptoSwift-line" fill-rule="evenodd" stroke="rgb(0, 0, 0)" stroke-width="1" stroke-linecap="square" stroke-miterlimit="4" fill="none" d="M 901.11,484.28 L 1047.71,484.28" />
            </g>
            <rect id="cryptoSwift-screen2" stroke="rgb(0, 0, 0)" stroke-width="1" stroke-miterlimit="10" fill="rgb(0, 0, 0)" x="921" y="415" width="107.07" height="62.01" />
            <path id="cryptoSwift-touchpad" fill-rule="evenodd" stroke="rgb(0, 0, 0)" stroke-width="1" stroke-miterlimit="4" fill="rgb(255, 255, 255)" d="M 990.48,481.65 L 990.48,482.3 C 990.48,482.77 989.56,482.91 988.86,482.91 L 960.26,482.91 C 959.53,482.91 958.6,482.77 958.6,482.3 L 958.6,481.65" />
        </g>
        <path id="cryptoSwift-bezier" stroke="none" fill="rgb(0, 0, 0)" d="M 598,447 C 598,447 598,581 598,581 L 597.9,581 C 597.99,581.09 598.04,581.14 598.04,581.14 598.04,581.14 570.19,608.99 560.8,618.37 560.8,635.79 560.8,706 560.8,706 L 550.8,706 550.8,614.5 C 550.74,614.4 550.68,614.35 550.68,614.35 550.68,614.35 578.69,586.34 588,577.03 588,554.83 588,447 588,447 L 598,447 598,447 Z M 598,447" />
        <path id="cryptoSwift-bezier2" stroke="none" fill="rgb(0, 0, 0)" d="M 832.22,401.42 L 884.05,431.34 879.05,440 C 879.05,440 839.74,417.31 829.59,411.45 L 787.24,411.45 787.24,401.45 832.21,401.45 832.22,401.42 Z M 832.22,401.42" />
        <rect id="cryptoSwift-rectangle9" stroke="none" fill="rgb(0, 0, 0)" x="-106" y="-5" width="212" height="10"  transform="translate(610, 42) rotate(-90)" />
        <path id="cryptoSwift-bezier3" stroke="none" fill="rgb(0, 0, 0)" d="M 577,154 C 577,154 577,37 577,37 L 576.9,37 C 576.99,36.91 577.04,36.86 577.04,36.86 577.04,36.86 549.19,9.01 539.8,-0.37 539.8,-17.79 539.8,-64 539.8,-64 L 529.8,-64 529.8,3.5 C 529.74,3.6 529.68,3.65 529.68,3.65 529.68,3.65 557.69,31.66 567,40.97 567,63.17 567,158 567,158 L 577,154 Z M 577,154" />
        <path id="cryptoSwift-bezier5" stroke="none" fill="rgb(0, 0, 0)" d="M 529,422 L 533,432 478.93,432 C 472.62,442.92 457.83,468.54 453.27,476.45 L 453.27,500.8 443.27,500.8 443.27,473.83 C 443.24,473.82 473.16,422 473.16,422 L 529,422 Z M 529,422" />
        <path id="cryptoSwift-bezier4" stroke="none" fill="rgb(0, 0, 0)" d="M 47.32,-70 C 47.32,-70 47.32,134 47.32,134 L 47.22,134 C 47.31,134.09 47.35,134.14 47.35,134.14 47.35,134.14 19.5,161.99 10.12,171.37 10.12,188.79 10,254.68 10,254.68 L 0,254.68 0.12,167.5 C 0.05,167.4 0,167.35 0,167.35 0,167.35 28.01,139.34 37.32,130.03 37.32,107.83 37.32,-70 37.32,-70 L 47.32,-70 Z M 47.32,-70" transform="translate(421.68, 348) rotate(-270)"  />
        <circle id="cryptoSwift-oval13" stroke="rgb(0, 0, 0)" stroke-width="10" stroke-miterlimit="10" fill="rgb(255, 255, 255)" cx="99" cy="362" r="70" />
        <path id="cryptoSwift-bezier7" stroke="none" fill="rgb(0, 0, 0)" d="M 428.42,218.58 L 381.5,188.66 386.03,180 C 386.03,180 421.61,202.69 430.81,208.55 L 485.26,208.55 485.26,218.55 428.44,218.55 428.42,218.58 Z M 428.42,218.58" />
        <g id="cryptoSwift-iphone">
            <rect id="cryptoSwift-bezel4" stroke="rgb(0, 0, 0)" stroke-width="2" stroke-miterlimit="10" fill="rgb(0, 0, 0)" x="311" y="82.08" width="50" height="103.9" rx="6" />
            <rect id="cryptoSwift-screen3" stroke="rgb(255, 255, 255)" stroke-width="1" stroke-miterlimit="10" fill="rgb(255, 255, 255)" x="315" y="96" width="41.93" height="75.08" />
            <rect id="cryptoSwift-speaker" stroke="rgb(255, 255, 255)" stroke-width="1" stroke-miterlimit="10" fill="none" x="331.93" y="90" width="9.05" height="2.85" rx="1.2" />
            <circle id="cryptoSwift-camera2" stroke="rgb(255, 255, 255)" stroke-width="1" stroke-linejoin="bevel" stroke-miterlimit="10" fill="none" cx="336" cy="87" r="1" />
            <ellipse id="cryptoSwift-lock3" stroke="rgb(255, 255, 255)" stroke-width="1" stroke-miterlimit="10" fill="none" cx="336.04" cy="178" rx="4.04" ry="4" />
        </g>
        <circle id="cryptoSwift-oval15" stroke="rgb(0, 0, 0)" stroke-width="10" stroke-miterlimit="10" fill="rgb(255, 255, 255)" cx="1010" cy="677" r="70" />
        <path id="cryptoSwift-bezier8" stroke="none" fill="rgb(0, 0, 0)" d="M 4.88,131.68 C 4.88,131.68 4.88,-2.32 4.88,-2.32 L 4.78,-2.32 C 4.87,-2.4 4.92,-2.45 4.92,-2.45 4.92,-2.45 -22.93,-30.3 -32.32,-39.69 -32.32,-57.1 -41.51,-204.39 -41.51,-204.39 L -51.51,-204.39 -42.32,-35.82 C -42.38,-35.72 -42.43,-35.66 -42.43,-35.66 -42.43,-35.66 -14.42,-7.65 -5.12,1.65 -5.12,23.86 -5.12,131.68 -5.12,131.68 L 4.88,131.68 4.88,131.68 Z M 4.88,131.68" transform="translate(780.06, 518.49) rotate(135)"  />
        <g id="cryptoSwift-iPAD">
            <rect id="cryptoSwift-bezel" stroke="rgb(0, 0, 0)" stroke-width="2" stroke-miterlimit="10" fill="rgb(255, 255, 255)" x="975.1" y="626.08" width="68.9" height="98.9" rx="6" />
            <rect id="cryptoSwift-bezel2" stroke="rgb(0, 0, 0)" stroke-width="2" stroke-miterlimit="10" fill="rgb(0, 0, 0)" x="975.1" y="626.08" width="68.9" height="98.9" rx="6" />
            <rect id="cryptoSwift-screen" stroke="rgb(255, 255, 255)" stroke-width="1" stroke-miterlimit="10" fill="rgb(255, 255, 255)" x="981" y="637" width="58" height="77.92" />
            <circle id="cryptoSwift-lock2" stroke="rgb(255, 255, 255)" stroke-width="1" stroke-miterlimit="10" fill="none" cx="1009.5" cy="720.5" r="3" />
            <circle id="cryptoSwift-camera" stroke="rgb(255, 255, 255)" stroke-width="1" stroke-miterlimit="10" fill="none" cx="1009.5" cy="631.5" r="1" />
        </g>
        <path id="cryptoSwift-bezier9" stroke="none" fill="rgb(0, 0, 0)" d="M 0.14,-8.79 L 117.78,59.12 116.24,69.79 C 116.24,69.79 7.66,7.09 -2.5,1.23 L -185.69,40.93 -185.69,30.93 0.12,-8.77 0.14,-8.79 Z M 0.14,-8.79" transform="translate(374.09, 411.21) rotate(-30)"  />
        <circle id="cryptoSwift-oval16" stroke="rgb(0, 0, 0)" stroke-width="10" stroke-miterlimit="10" fill="rgb(255, 255, 255)" cx="159" cy="590" r="90" />
        <g id="cryptoSwift-tux">
            <path id="cryptoSwift-bezier10" stroke="none" fill="rgb(0, 0, 0)" d="M 159.81,552.82 C 159.81,553.29 159.35,553.29 159.35,553.29 L 158.88,553.29 C 158.41,553.29 158.41,552.82 157.94,552.35 157.94,552.35 157.47,551.88 157.47,551.41 157.47,550.93 157.47,550.93 157.94,550.93 L 158.88,551.41 C 159.35,551.88 159.81,552.35 159.81,552.82 Z M 151.39,548.1 C 151.39,545.74 150.46,544.33 149.05,544.33 149.05,544.33 149.05,544.8 148.58,544.8 L 148.58,545.74 149.99,545.74 C 149.99,546.69 150.46,547.16 150.46,548.1 L 151.39,548.1 Z M 167.77,545.74 C 168.7,545.74 169.17,546.69 169.64,548.1 L 170.58,548.1 C 170.11,547.63 170.11,547.16 170.11,546.69 170.11,546.22 170.11,545.74 169.64,545.27 169.17,544.8 168.7,544.33 168.24,544.33 168.24,544.33 167.77,544.8 167.3,544.8 167.3,545.27 167.77,545.27 167.77,545.74 Z M 153.73,553.29 C 153.26,553.29 153.26,553.29 153.26,552.82 153.26,552.35 153.26,551.88 153.73,551.41 154.67,551.41 155.13,550.93 155.13,550.93 155.6,550.93 155.6,551.41 155.6,551.41 155.6,551.88 155.13,552.35 154.2,553.29 L 153.73,553.29 Z M 148.58,552.82 C 146.71,551.88 146.24,550.46 146.24,548.1 146.24,546.69 146.24,545.74 147.18,544.8 147.65,543.86 148.58,543.38 149.52,543.38 150.46,543.38 150.92,543.86 151.86,544.8 152.33,546.22 152.79,547.63 152.79,549.05 L 152.79,549.52 152.79,549.99 153.26,549.99 153.26,549.52 C 153.73,549.52 153.73,548.58 153.73,546.69 153.73,545.27 153.73,543.86 152.79,542.44 151.86,541.03 150.92,540.08 149.05,540.08 147.65,540.08 146.24,541.03 145.78,542.44 144.84,544.33 144.65,545.74 144.65,548.1 144.65,549.99 145.31,551.88 147.18,553.77 147.65,553.29 148.12,553.29 148.58,552.82 Z M 207.07,619.35 C 207.54,619.35 207.54,619.16 207.54,618.74 207.54,617.7 207.07,616.47 205.67,615.1 204.27,613.69 201.93,612.79 199.12,612.41 198.65,612.37 198.18,612.37 198.18,612.37 197.72,612.27 197.72,612.27 197.25,612.27 196.78,612.23 195.84,612.13 195.38,612.04 196.78,607.65 197.25,603.78 197.25,600.38 197.25,595.66 196.31,592.36 194.44,589.53 192.57,586.7 190.7,585.28 188.36,584.81 187.89,585.28 187.89,585.28 187.89,585.76 190.23,586.7 192.57,588.59 193.97,591.42 195.38,594.72 195.84,597.55 195.84,600.85 195.84,603.5 195.38,607.41 193.5,612.41 191.63,613.17 189.76,614.92 188.36,617.65 188.36,618.08 188.36,618.31 188.82,618.31 188.82,618.31 189.29,617.89 189.76,617.09 190.7,616.28 191.16,615.48 192.1,614.68 193.5,613.88 194.44,613.45 195.84,613.45 198.18,613.45 200.52,613.78 201.93,614.44 203.8,615.06 204.73,615.72 205.2,616.47 205.67,617.18 206.14,617.84 206.61,618.45 206.61,619.07 207.07,619.35 207.07,619.35 Z M 164.02,550.93 C 163.56,550.46 163.56,549.52 163.56,548.58 163.56,546.69 163.56,545.74 164.49,544.33 165.43,543.38 166.36,542.91 167.3,542.91 168.7,542.91 169.64,543.86 170.58,544.8 171.04,546.22 171.51,547.16 171.51,548.58 171.51,550.93 170.58,552.35 168.7,552.82 168.7,552.82 169.17,553.29 169.64,553.29 170.58,553.29 171.04,553.77 171.98,554.24 172.45,551.41 172.92,549.52 172.92,547.16 172.92,544.33 172.45,542.44 171.51,541.03 170.11,539.61 168.7,539.14 166.83,539.14 165.43,539.14 164.02,539.61 162.62,540.55 161.69,541.97 161.22,542.91 161.22,544.33 161.22,546.69 161.69,548.58 162.62,550.46 163.09,550.46 163.56,550.93 164.02,550.93 Z M 169.64,558.48 C 163.56,562.73 158.88,564.62 155.13,564.62 151.86,564.62 148.58,563.2 145.78,560.84 146.24,561.79 146.71,562.73 147.18,563.2 L 149.99,566.03 C 151.86,567.92 154.2,568.86 156.54,568.86 159.81,568.86 163.56,566.98 168.24,563.67 L 172.45,560.84 C 173.38,559.9 174.32,558.96 174.32,557.54 174.32,557.07 174.32,556.6 173.85,556.6 173.38,555.65 171.04,554.24 166.36,552.82 162.15,550.93 158.88,549.99 157.01,549.99 155.6,549.99 153.26,550.93 149.99,552.82 147.18,554.71 145.31,556.6 145.31,558.48 145.31,558.48 145.78,558.96 146.24,559.9 149.05,562.26 151.86,563.67 154.67,563.67 158.41,563.67 163.09,561.79 169.17,557.07 L 169.17,558.01 C 169.64,558.01 169.64,558.48 169.64,558.48 Z M 180.4,653.8 C 182.27,657.34 185.55,659.13 189.29,659.13 190.23,659.13 191.16,658.99 192.1,658.7 193.04,658.51 193.97,658.18 194.44,657.81 194.91,657.48 195.38,657.15 195.84,656.77 196.78,656.44 196.78,656.2 197.25,655.97 L 205.2,649.03 C 207.07,647.52 208.95,646.21 211.28,645.07 213.16,643.93 215.03,643.18 215.96,642.75 217.37,642.38 218.3,641.81 219.24,641.06 219.71,640.35 220.18,639.45 220.18,638.32 220.18,636.95 219.24,635.91 218.3,635.16 217.37,634.4 216.43,633.88 215.5,633.55 214.56,633.22 213.62,632.47 212.22,631.19 211.28,629.97 210.35,628.27 209.88,626.05 L 209.41,623.31 C 208.95,622.04 208.95,621.1 208.48,620.58 208.48,620.44 208.48,620.39 208.01,620.39 207.54,620.39 206.61,620.81 206.14,621.62 205.2,622.42 204.27,623.31 203.33,624.26 202.86,625.2 201.46,626.05 200.52,626.85 199.12,627.66 197.72,628.08 196.78,628.08 193.04,628.08 191.16,627.04 189.76,625.01 188.82,623.5 188.36,621.76 187.89,619.78 186.95,618.97 186.48,618.55 185.55,618.55 183.21,618.55 182.27,621 182.27,625.96 L 182.27,627.51 182.27,632.99 182.27,637.19 182.27,639.22 182.27,640.63 C 182.27,641.06 181.81,642 181.81,643.46 181.34,644.92 181.34,646.59 181.34,648.46 L 180.4,653.7 180.4,653.78 M 112.55,651.28 C 116.91,651.93 121.91,653.3 127.57,655.39 133.24,657.47 136.7,658.56 137.96,658.56 141.24,658.56 143.95,657.09 146.2,654.27 146.67,653.35 146.67,652.28 146.67,651.04 146.67,646.58 144,640.94 138.66,634.1 L 135.48,629.81 C 134.83,628.91 134.03,627.54 133,625.7 132.02,623.86 131.13,622.45 130.43,621.46 129.82,620.37 128.84,619.28 127.57,618.2 126.36,617.11 124.95,616.41 123.41,616.03 121.44,616.41 120.09,617.07 119.43,617.96 118.78,618.86 118.4,619.85 118.31,620.89 118.17,621.88 117.89,622.54 117.42,622.87 116.95,623.15 116.16,623.39 115.08,623.63 114.85,623.63 114.43,623.63 113.82,623.67 L 112.55,623.67 C 110.07,623.67 108.39,623.96 107.5,624.43 106.33,625.8 105.72,627.35 105.72,629 105.72,629.76 105.91,631.03 106.28,632.83 106.66,634.57 106.85,635.99 106.85,636.98 106.85,638.91 106.28,640.85 105.11,642.78 103.94,644.81 103.34,646.32 103.34,647.4 103.8,649.23 106.89,650.52 112.55,651.27 M 128.14,608.38 C 128.14,605.12 128.98,601.54 130.71,597.29 132.39,593.05 134.08,590.21 135.72,588.33 135.62,587.86 135.39,587.86 135.01,587.86 L 134.55,587.38 C 133.19,588.8 131.55,592.1 129.59,596.82 127.62,601.07 126.59,604.98 126.59,607.86 126.59,609.98 127.11,611.83 128.04,613.43 129.07,614.99 131.55,617.25 135.48,620.13 L 140.44,623.39 C 145.73,628.01 148.54,631.22 148.54,633.1 148.54,634.1 148.07,635.09 146.67,636.17 145.73,637.3 144.47,637.87 143.39,637.87 143.3,637.87 143.25,637.96 143.25,638.2 143.25,638.25 143.72,639.19 144.7,641.03 146.67,643.72 150.88,645.04 156.49,645.04 166.79,645.04 174.74,640.8 180.82,632.3 180.82,629.94 180.82,628.48 180.36,627.87 L 180.36,626.12 C 180.36,623.05 180.82,620.74 181.76,619.23 182.69,617.72 183.63,617.02 185.03,617.02 185.97,617.02 186.91,617.35 187.84,618.05 188.31,614.42 188.31,611.26 188.31,608.43 188.31,604.13 188.31,600.6 187.37,597.29 186.91,594.46 185.97,592.1 185.03,590.21 184.1,588.8 183.16,587.38 182.23,585.97 181.29,584.55 180.82,583.14 179.89,581.72 179.42,579.83 178.95,578.42 178.95,576.06 177.55,573.7 176.61,571.34 175.21,568.98 174.27,566.62 173.34,564.26 172.4,562.38 L 168.19,565.68 C 163.51,568.98 159.77,570.4 156.49,570.4 153.68,570.4 151.34,569.93 149.94,568.04 L 147.13,565.68 C 147.13,567.09 146.67,568.98 145.73,570.87 L 142.78,576.53 C 141.47,579.83 140.77,581.72 140.63,583.14 140.44,584.08 140.3,585.02 140.21,585.02 L 136.7,592.1 C 132.91,599.18 130.99,605.74 130.99,611.16 130.99,612.25 131.08,613.38 131.27,614.51 129.16,613.05 128.14,611.02 128.14,608.38 Z M 161.64,653.02 C 155.56,653.02 150.88,653.85 147.6,655.49 L 147.6,655.35 C 145.26,658.18 142.64,659.65 138.99,659.65 136.7,659.65 133.1,658.75 128.23,656.96 123.32,655.26 118.96,653.96 115.17,653.1 114.8,652.99 113.96,652.83 112.6,652.61 111.29,652.4 110.07,652.18 109,651.96 108.02,651.75 106.89,651.43 105.68,651 104.51,650.62 103.57,650.14 102.87,649.55 102.22,648.95 101.9,648.28 101.9,647.53 101.9,646.78 102.06,645.97 102.38,645.11 102.68,644.59 103.01,644.08 103.34,643.6 103.66,643.08 103.94,642.61 104.13,642.14 104.41,641.72 104.6,641.29 104.79,640.82 104.97,640.39 105.16,639.97 105.25,639.45 105.35,638.98 105.44,638.51 105.44,638.04 105.44,637.56 105.25,636.15 104.88,633.65 104.51,631.19 104.32,629.64 104.32,628.98 104.32,626.9 104.79,625.25 105.82,624.07 106.85,622.89 107.83,622.28 108.86,622.28 L 114.24,622.28 C 114.66,622.28 115.31,622.04 116.3,621.47 116.62,620.72 116.91,620.11 117.09,619.54 117.33,618.97 117.42,618.55 117.51,618.36 117.61,618.08 117.7,617.79 117.79,617.56 117.98,617.23 118.22,616.85 118.54,616.47 118.17,616 117.98,615.39 117.98,614.63 117.98,614.11 117.98,613.64 118.08,613.36 118.08,611.66 118.87,609.25 120.56,606.09 L 122.19,603.12 C 123.55,600.57 124.58,598.68 125.33,596.8 126.12,594.91 126.97,592.08 127.9,588.3 128.65,585 130.43,581.7 133.24,578.4 L 136.75,574.15 C 139.18,571.32 140.77,568.96 141.66,567.07 142.55,565.18 143.02,562.82 143.02,560.94 143.02,559.99 142.78,557.16 142.27,552.44 141.8,547.73 141.56,543.01 141.56,538.76 141.56,535.46 141.85,533.1 142.45,530.74 143.06,528.38 144.14,526.02 145.73,524.13 147.13,522.25 149,520.36 151.81,519.42 154.62,518.47 157.9,518 161.64,518 163.04,518 164.45,518 165.85,518.47 167.25,518.47 169.13,518.94 171.46,519.89 173.34,520.83 175.21,521.77 176.61,523.19 178.48,524.61 179.89,526.96 181.29,529.32 182.23,532.16 183.16,534.99 183.63,538.76 184.1,541.12 184.1,543.48 184.57,546.78 184.57,549.61 185.03,551.5 185.03,552.92 185.5,554.33 185.5,556.22 185.97,558.58 186.44,560.47 186.91,562.35 187.84,563.77 188.78,565.66 189.71,567.54 191.12,569.43 192.52,571.79 194.39,574.15 196.26,576.98 200.48,581.7 203.75,586.89 205.62,592.08 207.96,596.8 209.37,602.93 209.37,609.49 209.37,612.75 208.9,615.91 207.96,618.97 208.9,618.97 209.37,619.35 209.83,620.01 210.3,620.67 210.77,622.09 211.24,624.31 L 211.71,627.8 C 212.17,628.83 212.64,629.83 214.05,630.67 214.98,631.52 215.92,632.23 217.32,632.8 218.26,633.27 219.66,633.93 220.6,634.78 221.53,635.72 222,636.71 222,637.75 222,639.36 221.53,640.54 220.6,641.39 219.66,642.33 218.72,642.99 217.32,643.41 216.38,643.89 214.51,644.83 211.71,646.16 209.37,647.56 207.03,649.25 204.69,651.26 L 200.01,655.27 C 198.14,657.11 196.26,658.43 194.86,659.24 193.46,660.08 191.59,660.51 189.71,660.51 L 186.44,660.13 C 182.69,659.14 180.36,657.25 178.95,654.38 171.46,653.46 165.38,653.01 161.64,653.01" />
        </g>
        <g id="cryptoSwift-document">
            <path id="cryptoSwift-bezier11" stroke="rgb(0, 0, 0)" stroke-width="1" stroke-miterlimit="10" fill="rgb(0, 0, 0)" d="M 721,623.35 L 721,689.16 C 721,691.83 719.26,694 717.11,694 L 656.89,694 C 654.74,694 653,691.83 653,689.16 L 653,608.84 C 653,606.17 654.74,604 656.89,604 L 705.44,604 721,623.35 Z M 704.66,625.29 L 703.88,625.29 703.88,624.32 703.88,605.94 656.89,605.94 C 655.6,605.94 654.56,607.24 654.56,608.84 L 654.56,689.16 C 654.56,690.76 655.6,692.06 656.89,692.06 L 717.11,692.06 C 718.4,692.06 719.44,690.76 719.44,689.16 L 719.44,625.29 704.66,625.29 Z M 705.44,604 L 721,623.35 705.44,604 Z M 705.44,604" />
            <path id="cryptoSwift-bezier12" stroke="rgb(0, 0, 0)" stroke-width="2" stroke-miterlimit="10" fill="none" d="M 714.04,634.68 L 714.04,634.85 659.78,634.85 659.78,634.67 714.04,634.67 714.04,634.68 Z M 704.08,647.33 L 714.04,647.33 714.04,647.51 704.15,647.51 C 704.85,649.4 705.24,651.44 705.24,653.57 705.24,655.83 704.8,657.99 704.01,659.98 L 714.04,659.98 714.04,660.16 703.94,660.16 C 703.59,661.02 703.17,661.85 702.69,662.64 699.49,667.88 693.62,671.39 686.91,671.39 679.18,671.39 672.57,666.74 669.88,660.16 L 659.78,660.16 659.78,659.98 669.8,659.98 C 669.01,657.99 668.58,655.83 668.58,653.57 668.58,651.44 668.96,649.4 669.67,647.51 L 659.78,647.51 659.78,647.33 669.73,647.33 C 670.99,644.05 673.21,641.23 676.06,639.2 677.59,638.11 679.29,637.25 681.11,636.65 682.94,636.06 684.88,635.74 686.91,635.74 694.77,635.74 701.48,640.56 704.08,647.33 Z M 714.04,672.64 L 714.04,672.81 659.78,672.81 659.78,672.64 714.04,672.64 714.04,672.64 Z M 714.04,672.64" />
            <path id="cryptoSwift-text" stroke="none" fill="rgb(0, 0, 0)" d="M 681.9,661.63 C 681.9,662.09 681.76,662.46 681.48,662.75 681.2,663.04 680.86,663.18 680.45,663.18 680.04,663.18 679.7,663.04 679.43,662.75 679.16,662.46 679.03,662.09 679.03,661.63 679.03,661.22 679.16,660.86 679.43,660.54 679.7,660.23 680.04,660.08 680.45,660.08 680.86,660.08 681.2,660.23 681.48,660.54 681.76,660.86 681.9,661.22 681.9,661.63 Z M 691.76,647.2 L 694.26,651.08 692.84,652.1 690.37,648.16 687.93,652.04 686.47,651.02 688.98,647.2 684.99,645.77 685.58,644.19 689.47,645.65 689.47,640.99 691.27,640.99 691.27,645.65 695.19,644.22 695.72,645.83 691.76,647.2 Z M 691.76,647.2" />
        </g>
        <path id="cryptoSwift-bezier13" stroke="none" fill="rgb(0, 0, 0)" d="M 135,371 C 132.24,371 130,373.24 130,376 130,378.76 132.24,381 135,381 137.76,381 140,378.76 140,376 140,374.87 139.62,373.82 138.99,372.98 138.07,371.78 136.63,371 135,371 Z M 60.57,344.95 C 60.57,344.95 63.19,348.84 64.61,350.95 65.83,350.6 71.57,348.95 71.57,348.95 71.57,348.95 73.4,351.68 74.83,353.8 76.4,352.66 78,351.5 78,351.5 78,351.5 80.89,353.6 82.72,354.93 85.02,353.98 87.57,352.95 87.57,352.95 87.57,352.95 89.29,356.12 90.7,358.48 91.94,357.68 93,357 93,357 93,357 94.97,358.27 96.69,359.37 98.25,359.14 99.57,358.95 99.57,358.95 99.57,358.95 100.39,359.84 101.36,361 L 104.8,361 C 108.7,353.85 116.28,349 125,349 126.01,349 127.01,349.07 127.99,349.19 L 128.23,349.22 C 128.66,349.28 129.08,349.36 129.5,349.44 135.01,350.53 139.82,353.6 143.15,357.87 146.19,361.77 148,366.67 148,372 148,384.7 137.7,395 125,395 113.12,395 103.35,386 102.13,374.45 96.54,372.41 81.56,366.96 71.11,363.16 71.07,363.21 62.78,360.19 62.78,360.19 61.14,359.53 60.18,359.18 60.18,359.18 60.18,359.18 60.21,359.1 60.26,358.97 60.2,359.04 60.16,359.1 60.12,359.14 60.07,359.21 51.78,356.19 51.78,356.19 L 49.09,347.38 60.57,344.95 60.57,344.95 Z M 60.57,344.95" />
    </g>
</svg>