<?xml version="1.0" encoding="UTF-8"?>
<!DOCTYPE svg PUBLIC "-//W3C//DTD SVG 1.1//EN" "http://www.w3.org/Graphics/SVG/1.1/DTD/svg11.dtd">
<svg version="1.1" xmlns="http://www.w3.org/2000/svg" xmlns:xlink="http://www.w3.org/1999/xlink" width="512" height="512"  xml:space="preserve" id="incremental">
    <!-- Generated by PaintCode - http://www.paintcodeapp.com -->
    <path id="incremental-bezier2" stroke="#cbcbcb" stroke-width="10" stroke-miterlimit="10" fill="none" d="M 337.96,121.32 C 341.35,120.78 344.83,120.5 348.38,120.5 384.31,120.5 413.44,149.38 413.44,185 L 413.44,185.32 C 415.58,185.11 417.75,185 419.94,185 455.87,185 485,213.88 485,249.5 485,285.12 455.87,314 419.94,314 419.33,314 418.72,313.99 418.11,313.97 417.85,313.99 417.6,314 417.34,314 L 106.37,314 C 104.89,314 95.49,314 92.06,314 56.13,314 27,285.12 27,249.5 27,213.88 56.13,185 92.06,185 92.93,185 93.8,185.02 94.66,185.05 94.66,119.64 143.69,65.63 207.27,57.16 212.99,56.39 218.84,56 224.77,56 273.28,56 315.58,82.31 337.96,121.32 Z M 123.66,186 C 123.66,130.33 165.6,84.37 220,77.16" />
    <circle id="incremental-oval" stroke="#cbcbcb" stroke-width="10" stroke-miterlimit="10" fill="none" cx="71" cy="400" r="25" />
    <circle id="incremental-oval2" stroke="#cbcbcb" stroke-width="10" stroke-miterlimit="10" fill="none" cx="198" cy="437" r="25" />
    <circle id="incremental-oval3" stroke="#cbcbcb" stroke-width="10" stroke-miterlimit="10" fill="none" cx="291" cy="470" r="25" />
    <circle id="incremental-oval4" stroke="#cbcbcb" stroke-width="10" stroke-miterlimit="10" fill="none" cx="432" cy="400" r="25" />
    <rect id="incremental-rectangle" stroke="#cbcbcb" stroke-width="10" stroke-miterlimit="10" stroke-dasharray="34,10" stroke-dashoffset="0" fill="none" x="145" y="296" width="1" height="103" />
    <rect id="incremental-rectangle2" stroke="#cbcbcb" stroke-width="10" stroke-miterlimit="10" fill="none" x="96" y="399" width="50" height="1" />
    <rect id="incremental-rectangle3" stroke="#cbcbcb" stroke-width="10" stroke-miterlimit="10" fill="none" x="199" y="296" width="1" height="116" />
    <rect id="incremental-rectangle4" stroke="#cbcbcb" stroke-width="10" stroke-miterlimit="10" fill="none" x="292" y="296" width="1" height="149" />
    <rect id="incremental-rectangle5" stroke="#cbcbcb" stroke-width="10" stroke-miterlimit="10" stroke-dasharray="20,20" stroke-dashoffset="0" fill="none" x="357" y="295" width="1" height="103" />
    <rect id="incremental-rectangle6" stroke="#cbcbcb" stroke-width="10" stroke-miterlimit="10" fill="none" x="357" y="398" width="50" height="1" />
</svg>