<?xml version="1.0" encoding="UTF-8"?>
<!DOCTYPE svg PUBLIC "-//W3C//DTD SVG 1.1//EN" "http://www.w3.org/Graphics/SVG/1.1/DTD/svg11.dtd">
<svg version="1.1" xmlns="http://www.w3.org/2000/svg" xmlns:xlink="http://www.w3.org/1999/xlink" width="512" height="512"  xml:space="preserve" id="canvas2">
    <!-- Generated by PaintCode - http://www.paintcodeapp.com -->
    <g id="canvas2-group">
        <path id="canvas2-bezier3" stroke="none" fill="#cbcbcb" d="M 352.54,41 L 352.54,124 429.93,124 434,124 434,129 434,464 C 434,477.81 424.88,489 413.63,489 L 98.37,489 C 87.12,489 78,477.81 78,464 L 78,49 C 78,35.19 87.12,24 98.37,24 L 348.46,24 352.54,24 352.54,29 352.54,41 Z M 348.46,134 L 344.39,134 344.39,129 344.39,34 98.37,34 C 91.62,34 86.15,40.72 86.15,49 L 86.15,464 C 86.15,472.28 91.62,479 98.37,479 L 413.63,479 C 420.38,479 425.85,472.28 425.85,464 L 425.85,134 348.46,134 Z M 352.54,24 L 434,124 420.15,124 352.54,41 352.54,24 Z M 352.54,24" />
        <rect id="canvas2-rectangle2" stroke="#cbcbcb" stroke-width="10" stroke-miterlimit="10" fill="none" x="114" y="93" width="202" height="1" />
        <rect id="canvas2-rectangle13" stroke="#cbcbcb" stroke-width="10" stroke-miterlimit="10" fill="none" x="114" y="418" width="284" height="1" />
        <path id="canvas2-bezier" stroke="#cbcbcb" stroke-width="10" stroke-miterlimit="10" fill="none" d="M 397.54,158.44 C 397.54,158.44 397.54,159.36 397.54,159.36 L 113.5,159.36 113.5,158.44 397.54,158.44 397.54,158.44 Z M 345.44,223.81 L 397.54,223.81 397.54,224.73 345.79,224.73 C 349.47,234.51 351.48,245.05 351.48,256.04 351.48,267.73 349.21,278.9 345.07,289.19 L 397.54,289.19 397.54,290.11 344.69,290.11 C 342.84,294.56 340.64,298.85 338.12,302.93 321.41,329.98 290.67,348.12 255.52,348.12 215.07,348.12 180.46,324.1 166.35,290.11 L 113.5,290.11 113.5,289.19 165.97,289.19 C 161.83,278.9 159.56,267.73 159.56,256.04 159.56,245.05 161.57,234.51 165.25,224.73 L 113.5,224.73 113.5,223.81 165.6,223.81 C 172.2,206.89 183.83,192.32 198.75,181.8 206.71,176.18 215.61,171.71 225.19,168.66 234.72,165.61 244.92,163.96 255.52,163.96 296.7,163.96 331.82,188.85 345.44,223.81 Z M 397.54,354.57 C 397.54,354.56 397.54,355.49 397.54,355.49 L 113.5,355.49 113.5,354.56 397.54,354.56 397.54,354.57 Z M 397.54,354.57" />
        <path id="canvas2-text" stroke="none" fill="#cbcbcb" d="M 288.15,228.7 C 285.35,224.9 281.7,222.13 277.2,220.38 272.7,218.62 268.3,217.75 264,217.75 258.5,217.75 253.5,218.75 249,220.75 244.5,222.75 240.63,225.5 237.38,229 234.12,232.5 231.63,236.6 229.88,241.3 228.12,246 227.25,251.1 227.25,256.6 227.25,262.4 228.1,267.7 229.8,272.5 231.5,277.3 233.92,281.42 237.07,284.88 240.23,288.33 244,291 248.4,292.9 252.8,294.8 257.75,295.75 263.25,295.75 268.95,295.75 274,294.63 278.4,292.38 282.8,290.12 286.35,287.15 289.05,283.45 L 304.2,294.1 C 299.5,300 293.75,304.57 286.95,307.82 280.15,311.08 272.2,312.7 263.1,312.7 254.8,312.7 247.18,311.33 240.22,308.57 233.27,305.82 227.3,301.98 222.3,297.02 217.3,292.07 213.4,286.18 210.6,279.32 207.8,272.47 206.4,264.9 206.4,256.6 206.4,248.1 207.87,240.43 210.82,233.57 213.78,226.72 217.82,220.9 222.98,216.1 228.13,211.3 234.2,207.6 241.2,205 248.2,202.4 255.8,201.1 264,201.1 267.4,201.1 270.95,201.42 274.65,202.07 278.35,202.73 281.9,203.72 285.3,205.07 288.7,206.43 291.9,208.1 294.9,210.1 297.9,212.1 300.45,214.5 302.55,217.3 L 288.15,228.7 Z M 288.15,228.7" />
    </g>
</svg>