<?xml version="1.0" encoding="UTF-8"?>
<!DOCTYPE svg PUBLIC "-//W3C//DTD SVG 1.1//EN" "http://www.w3.org/Graphics/SVG/1.1/DTD/svg11.dtd">
<svg version="1.1" xmlns="http://www.w3.org/2000/svg" xmlns:xlink="http://www.w3.org/1999/xlink" width="512" height="512"  xml:space="preserve" id="canvas1">
    <!-- Generated by PaintCode - http://www.paintcodeapp.com -->
    <g id="canvas1-iphone">
        <rect id="canvas1-rectangle" stroke="#cbcbcb" stroke-width="10" stroke-miterlimit="10" fill="none" x="20" y="22" width="141" height="248" rx="20" />
        <path id="canvas1-bezier" stroke="none" fill="#cbcbcb" d="M 90.93,231.65 C 81.49,231.65 73.84,239.28 73.84,248.69 73.84,258.11 81.49,265.74 90.93,265.74 100.37,265.74 108.02,258.11 108.02,248.69 108.02,243.25 105.46,238.41 101.48,235.29 98.58,233.01 94.91,231.65 90.93,231.65 Z M 161,227.39 C 161,227.39 161,252.96 161,252.96 161,262.37 153.35,270 143.91,270 L 37.09,270 C 27.65,270 20,262.37 20,252.96 L 20,227.39 161,227.39 161,227.39 Z M 161,227.39" />
        <path id="canvas1-bezier2" stroke="none" fill="#cbcbcb" d="M 102.89,29.67 L 78.11,29.67 C 77.17,29.67 76.4,30.43 76.4,31.37 76.4,32.32 77.17,33.08 78.11,33.08 L 102.89,33.08 C 103.83,33.08 104.6,32.32 104.6,31.37 104.6,30.43 103.83,29.67 102.89,29.67 Z M 161,31.37 L 161,39.9 20,39.9 20,31.37 C 20,26.67 23.83,22.85 28.55,22.85 L 152.45,22.85 C 157.17,22.85 161,26.67 161,31.37 Z M 161,31.37" />
    </g>
    <g id="canvas1-ipad">
        <rect id="canvas1-rectangle2" stroke="#cbcbcb" stroke-width="10" stroke-miterlimit="10" fill="none" x="180" y="43" width="295" height="206" rx="10" />
        <path id="canvas1-rectangle3" stroke="none" fill="#cbcbcb" d="M 180,51 L 475,51 475,47 C 475,44.79 473.21,43 471,43 L 184,43 C 181.79,43 180,44.79 180,47 Z M 180,51" />
        <path id="canvas1-rectangle4" stroke="none" fill="#cbcbcb" d="M 180,245 C 180,247.21 181.79,249 184,249 L 471,249 C 473.21,249 475,247.21 475,245 L 475,241 180,241 Z M 180,245" />
        <path id="canvas1-bezier3" stroke="none" fill="#cbcbcb" d="M 188.04,143.51 C 186.9,143.51 185.97,144.44 185.97,145.58 185.97,146.73 186.9,147.66 188.04,147.66 189.19,147.66 190.12,146.73 190.12,145.58 190.12,145.32 190.07,145.06 189.98,144.82 189.67,144.05 188.92,143.51 188.04,143.51 Z M 199.26,43 C 199.26,43 199.26,249 199.26,249 L 184.31,249 C 179.72,249 176,245.28 176,240.69 L 176,51.31 C 176.02,46.7 179.73,43 184.31,43 L 199.26,43 199.26,43 Z M 199.26,43" />
        <path id="canvas1-bezier4" stroke="#cbcbcb" stroke-width="4" stroke-miterlimit="10" fill="#cbcbcb" d="M 470.85,51.31 C 470.85,51.31 470.85,98.65 470.85,146 470.85,141.41 467.13,137.69 462.54,137.69 459.74,137.69 457.26,139.08 455.76,141.21 454.8,142.56 454.24,144.22 454.24,146 454.24,150.59 457.95,154.31 462.54,154.31 467.13,154.31 470.85,150.59 470.85,146 470.85,193.35 470.85,240.69 470.85,240.69 470.85,245.28 467.13,249 462.54,249 L 450.08,249 C 450.08,249 450.08,245.73 450.08,240.02 450.08,200.39 450.08,43 450.08,43 L 462.54,43 C 467.13,43 470.85,46.72 470.85,51.31 Z M 470.85,51.31" />
    </g>
    <g id="canvas1-watchOS">
        <rect id="canvas1-rectangle5" stroke="#cbcbcb" stroke-width="8" stroke-miterlimit="10" fill="none" x="210" y="322" width="100" height="121" rx="10" />
        <rect id="canvas1-rectangle6" stroke="none" fill="#cbcbcb" x="318" y="334" width="6" height="29" rx="3" />
        <path id="canvas1-bezier8" stroke="#cbcbcb" stroke-width="6" stroke-miterlimit="10" fill="none" d="M 295,452 C 295,461.91 295,472.34 295,472.97 L 295,472.93 C 294.98,478.54 290.51,483 285,483 L 235,483 C 229.48,483 225,478.52 225,473 225,473 225,462.22 225,452" />
        <path id="canvas1-bezier5" stroke="#cbcbcb" stroke-width="6" stroke-miterlimit="10" fill="none" d="M 295,313 C 295,303.09 295,292.66 295,292.03 L 295,292.07 C 294.98,286.46 290.51,282 285,282 L 235,282 C 229.48,282 225,286.48 225,292 225,292 225,302.78 225,313" />
        <path id="canvas1-oval" stroke="#cbcbcb" stroke-width="4" stroke-miterlimit="10" fill="none" d="M 280,368.94 C 280,379.95 260,416 260,416 260,416 240,379.95 240,368.94 240,357.93 248.95,349 260,349 271.05,349 280,357.93 280,368.94 Z M 280,368.94" />
        <circle id="canvas1-oval2" stroke="#cbcbcb" stroke-width="4" stroke-miterlimit="10" fill="none" cx="260" cy="370" r="10" />
    </g>
    <g id="canvas1-tux">
        <path id="canvas1-bezier7" stroke="none" fill="#cbcbcb" d="M 104.82,332.95 C 104.82,333.64 104.13,333.64 104.13,333.64 L 103.44,333.64 C 102.76,333.64 102.76,332.95 102.07,332.26 102.07,332.26 101.39,331.57 101.39,330.88 101.39,330.19 101.39,330.19 102.07,330.19 L 103.44,330.88 C 104.13,331.57 104.82,332.26 104.82,332.95 Z M 92.47,326.04 C 92.47,322.59 91.09,320.52 89.04,320.52 89.04,320.52 89.04,321.21 88.35,321.21 L 88.35,322.59 90.41,322.59 C 90.41,323.97 91.09,324.66 91.09,326.04 L 92.47,326.04 Z M 116.48,322.59 C 117.85,322.59 118.54,323.97 119.22,326.04 L 120.6,326.04 C 119.91,325.35 119.91,324.66 119.91,323.97 119.91,323.28 119.91,322.59 119.22,321.9 118.54,321.21 117.85,320.52 117.17,320.52 117.17,320.52 116.48,321.21 115.79,321.21 115.79,321.9 116.48,321.9 116.48,322.59 Z M 95.9,333.64 C 95.21,333.64 95.21,333.64 95.21,332.95 95.21,332.26 95.21,331.57 95.9,330.88 97.27,330.88 97.96,330.19 97.96,330.19 98.64,330.19 98.64,330.88 98.64,330.88 98.64,331.57 97.96,332.26 96.58,333.64 L 95.9,333.64 Z M 88.35,332.95 C 85.61,331.57 84.92,329.5 84.92,326.04 84.92,323.97 84.92,322.59 86.29,321.21 86.98,319.83 88.35,319.14 89.72,319.14 91.09,319.14 91.78,319.83 93.15,321.21 93.84,323.28 94.52,325.35 94.52,327.43 L 94.52,328.12 94.52,328.81 95.21,328.81 95.21,328.12 C 95.9,328.12 95.9,326.74 95.9,323.97 95.9,321.9 95.9,319.83 94.52,317.76 93.15,315.69 91.78,314.31 89.04,314.31 86.98,314.31 84.92,315.69 84.23,317.76 82.86,320.52 82.59,322.59 82.59,326.04 82.59,328.81 83.55,331.57 86.29,334.33 86.98,333.64 87.66,333.64 88.35,332.95 Z M 174.11,430.29 C 174.8,430.29 174.8,430.01 174.8,429.39 174.8,427.87 174.11,426.08 172.05,424.08 170,422 166.57,420.69 162.45,420.14 161.76,420.07 161.08,420.07 161.08,420.07 160.39,419.93 160.39,419.93 159.7,419.93 159.02,419.86 157.65,419.73 156.96,419.59 159.02,413.17 159.7,407.51 159.7,402.54 159.7,395.63 158.33,390.8 155.59,386.66 152.84,382.52 150.1,380.45 146.67,379.75 145.98,380.45 145.98,380.45 145.98,381.14 149.41,382.52 152.84,385.28 154.9,389.42 156.96,394.25 157.65,398.39 157.65,403.23 157.65,407.09 156.96,412.82 154.22,420.14 151.47,421.25 148.73,423.8 146.67,427.8 146.67,428.43 146.67,428.77 147.36,428.77 147.36,428.77 148.04,428.15 148.73,426.98 150.1,425.8 150.79,424.63 152.16,423.45 154.22,422.28 155.59,421.66 157.65,421.66 161.08,421.66 164.51,422.14 166.57,423.11 169.31,424.01 170.68,424.97 171.37,426.08 172.05,427.11 172.74,428.08 173.43,428.98 173.43,429.88 174.11,430.29 174.11,430.29 Z M 110.99,330.19 C 110.31,329.5 110.31,328.12 110.31,326.74 110.31,323.97 110.31,322.59 111.68,320.52 113.05,319.14 114.42,318.45 115.79,318.45 117.85,318.45 119.22,319.83 120.6,321.21 121.28,323.28 121.97,324.66 121.97,326.74 121.97,330.19 120.6,332.26 117.85,332.95 117.85,332.95 118.54,333.64 119.22,333.64 120.6,333.64 121.28,334.33 122.66,335.02 123.34,330.88 124.03,328.12 124.03,324.66 124.03,320.52 123.34,317.76 121.97,315.69 119.91,313.62 117.85,312.93 115.11,312.93 113.05,312.93 110.99,313.62 108.93,315 107.56,317.07 106.87,318.45 106.87,320.52 106.87,323.97 107.56,326.74 108.93,329.5 109.62,329.5 110.31,330.19 110.99,330.19 Z M 119.22,341.23 C 110.31,347.45 103.44,350.21 97.96,350.21 93.15,350.21 88.35,348.14 84.23,344.68 84.92,346.07 85.61,347.45 86.29,348.14 L 90.41,352.28 C 93.15,355.04 96.58,356.42 100.01,356.42 104.82,356.42 110.31,353.66 117.17,348.83 L 123.34,344.68 C 124.71,343.3 126.09,341.92 126.09,339.85 126.09,339.16 126.09,338.47 125.4,338.47 124.71,337.09 121.28,335.02 114.42,332.95 108.25,330.19 103.44,328.81 100.7,328.81 98.64,328.81 95.21,330.19 90.41,332.95 86.29,335.71 83.55,338.47 83.55,341.23 83.55,341.23 84.23,341.92 84.92,343.3 89.04,346.76 93.15,348.83 97.27,348.83 102.76,348.83 109.62,346.07 118.54,339.16 L 118.54,340.54 C 119.22,340.54 119.22,341.23 119.22,341.23 Z M 135.01,480.69 C 137.75,485.88 142.55,488.49 148.04,488.49 149.41,488.49 150.79,488.28 152.16,487.87 153.53,487.59 154.9,487.11 155.59,486.55 156.27,486.07 156.96,485.59 157.65,485.03 159.02,484.55 159.02,484.21 159.7,483.86 L 171.37,473.71 C 174.11,471.51 176.86,469.58 180.29,467.91 183.03,466.26 185.78,465.15 187.15,464.53 189.21,463.98 190.58,463.15 191.95,462.05 192.64,461.01 193.32,459.7 193.32,458.04 193.32,456.04 191.95,454.52 190.58,453.42 189.21,452.31 187.84,451.55 186.46,451.07 185.09,450.59 183.72,449.48 181.66,447.62 180.29,445.82 178.92,443.34 178.23,440.09 L 177.54,436.09 C 176.86,434.22 176.86,432.84 176.17,432.08 176.17,431.88 176.17,431.81 175.49,431.81 174.8,431.81 173.43,432.43 172.74,433.6 171.37,434.78 170,436.09 168.62,437.47 167.94,438.85 165.88,440.09 164.51,441.27 162.45,442.44 160.39,443.06 159.02,443.06 153.53,443.06 150.79,441.54 148.73,438.57 147.36,436.36 146.67,433.81 145.98,430.91 144.61,429.74 143.92,429.12 142.55,429.12 139.12,429.12 137.75,432.71 137.75,439.95 L 137.75,442.23 137.75,450.24 137.75,456.38 137.75,459.35 137.75,461.42 C 137.75,462.05 137.06,463.43 137.06,465.57 136.38,467.71 136.38,470.14 136.38,472.88 L 135.01,480.55 135.01,480.66 M 35.52,477.01 C 41.9,477.95 49.24,479.96 57.54,483.03 65.85,486.06 70.92,487.65 72.78,487.65 77.58,487.65 81.56,485.51 84.85,481.38 85.54,480.04 85.54,478.46 85.54,476.65 85.54,470.13 81.63,461.88 73.8,451.87 L 69.14,445.59 C 68.18,444.28 67.01,442.27 65.5,439.58 64.06,436.89 62.76,434.82 61.73,433.37 60.84,431.78 59.4,430.19 57.54,428.6 55.76,427.02 53.7,425.98 51.44,425.43 48.56,425.98 46.57,426.95 45.61,428.26 44.65,429.57 44.1,431.02 43.96,432.54 43.75,433.99 43.34,434.96 42.66,435.44 41.97,435.85 40.8,436.2 39.22,436.54 38.88,436.54 38.26,436.54 37.37,436.61 L 35.52,436.61 C 31.88,436.61 29.41,437.03 28.11,437.72 26.39,439.72 25.5,442 25.5,444.41 25.5,445.52 25.78,447.38 26.33,450.01 26.87,452.56 27.15,454.63 27.15,456.08 27.15,458.91 26.33,461.74 24.61,464.57 22.9,467.54 22,469.75 22,471.32 22.69,474 27.22,475.89 35.52,476.99 M 58.37,414.24 C 58.37,409.47 59.6,404.23 62.14,398.01 64.61,391.8 67.08,387.66 69.48,384.9 69.34,384.21 69,384.21 68.45,384.21 L 67.77,383.52 C 65.78,385.59 63.38,390.42 60.49,397.32 57.61,403.54 56.1,409.27 56.1,413.48 56.1,416.59 56.86,419.28 58.23,421.63 59.74,423.9 63.38,427.22 69.14,431.43 L 76.41,436.19 C 84.16,442.96 88.28,447.65 88.28,450.41 88.28,451.86 87.6,453.31 85.54,454.9 84.16,456.56 82.31,457.39 80.73,457.39 80.6,457.39 80.53,457.52 80.53,457.87 80.53,457.94 81.21,459.32 82.66,462.01 85.54,465.95 91.71,467.88 99.95,467.88 115.04,467.88 126.7,461.67 135.62,449.24 135.62,445.79 135.62,443.65 134.94,442.75 L 134.94,440.2 C 134.94,435.71 135.62,432.33 136.99,430.12 138.37,427.91 139.74,426.87 141.8,426.87 143.17,426.87 144.54,427.36 145.91,428.39 146.6,423.07 146.6,418.45 146.6,414.31 146.6,408.03 146.6,402.85 145.23,398.01 144.54,393.87 143.17,390.42 141.8,387.66 140.43,385.59 139.05,383.52 137.68,381.45 136.31,379.38 135.62,377.3 134.25,375.23 133.56,372.47 132.88,370.4 132.88,366.95 130.82,363.5 129.45,360.05 127.39,356.59 126.02,353.14 124.64,349.69 123.27,346.93 L 117.1,351.76 C 110.24,356.59 104.75,358.66 99.95,358.66 95.83,358.66 92.4,357.97 90.34,355.21 L 86.22,351.76 C 86.22,353.83 85.54,356.59 84.16,359.35 L 79.84,367.64 C 77.92,372.47 76.89,375.23 76.69,377.3 76.41,378.68 76.21,380.07 76.07,380.07 L 70.92,390.42 C 65.37,400.78 62.55,410.37 62.55,418.31 62.55,419.9 62.69,421.56 62.96,423.21 59.88,421.07 58.37,418.1 58.37,414.24 Z M 107.49,479.55 C 98.57,479.55 91.71,480.76 86.91,483.17 L 86.91,482.96 C 83.48,487.11 79.64,489.25 74.28,489.25 70.92,489.25 65.64,487.93 58.5,485.31 51.3,482.83 44.92,480.92 39.36,479.66 38.81,479.5 37.58,479.27 35.59,478.95 33.67,478.64 31.88,478.32 30.31,478.01 28.86,477.7 27.22,477.23 25.43,476.59 23.72,476.05 22.35,475.34 21.32,474.47 20.37,473.6 19.9,472.62 19.9,471.52 19.9,470.42 20.14,469.24 20.6,467.98 21.04,467.22 21.52,466.46 22,465.77 22.48,465.01 22.9,464.32 23.17,463.63 23.58,463.01 23.86,462.39 24.13,461.7 24.4,461.08 24.68,460.46 24.82,459.7 24.95,459.01 25.09,458.32 25.09,457.63 25.09,456.94 24.82,454.87 24.27,451.21 23.72,447.62 23.44,445.34 23.44,444.37 23.44,441.33 24.13,438.92 25.64,437.19 27.15,435.47 28.59,434.57 30.1,434.57 L 37.99,434.57 C 38.61,434.57 39.57,434.22 41.01,433.4 41.49,432.29 41.9,431.39 42.18,430.57 42.52,429.74 42.66,429.12 42.79,428.84 42.93,428.43 43.07,428.01 43.2,427.67 43.48,427.18 43.82,426.63 44.3,426.08 43.75,425.39 43.48,424.49 43.48,423.39 43.48,422.63 43.48,421.94 43.62,421.52 43.62,419.04 44.78,415.52 47.25,410.89 L 49.65,406.54 C 51.64,402.81 53.15,400.05 54.25,397.29 55.42,394.53 56.65,390.39 58.02,384.86 59.12,380.03 61.73,375.2 65.85,370.37 L 70.99,364.15 C 74.56,360.01 76.89,356.56 78.2,353.8 79.5,351.04 80.19,347.58 80.19,344.82 80.19,343.44 79.84,339.3 79.09,332.4 78.4,325.49 78.06,318.59 78.06,312.38 78.06,307.54 78.47,304.09 79.36,300.64 80.25,297.19 81.83,293.74 84.16,290.97 86.22,288.21 88.97,285.45 93.08,284.07 97.2,282.69 102,282 107.49,282 109.55,282 111.61,282 113.67,282.69 115.73,282.69 118.47,283.38 121.9,284.76 124.64,286.14 127.39,287.52 129.45,289.59 132.19,291.67 134.25,295.12 136.31,298.57 137.68,302.71 139.05,306.85 139.74,312.38 140.43,315.83 140.43,319.28 141.11,324.11 141.11,328.25 141.8,331.02 141.8,333.09 142.48,335.16 142.48,337.92 143.17,341.37 143.86,344.13 144.54,346.89 145.91,348.96 147.29,351.73 148.66,354.49 150.72,357.25 152.78,360.7 155.52,364.15 158.26,368.29 164.44,375.2 169.24,382.79 171.99,390.39 175.42,397.29 177.48,406.26 177.48,415.86 177.48,420.62 176.79,425.25 175.42,429.74 176.79,429.74 177.48,430.29 178.16,431.26 178.85,432.22 179.53,434.29 180.22,437.54 L 180.91,442.65 C 181.59,444.17 182.28,445.62 184.34,446.86 185.71,448.1 187.08,449.14 189.14,449.96 190.51,450.65 192.57,451.62 193.94,452.86 195.31,454.24 196,455.69 196,457.21 196,459.56 195.31,461.29 193.94,462.53 192.57,463.91 191.2,464.88 189.14,465.5 187.77,466.19 185.02,467.57 180.91,469.52 177.48,471.56 174.04,474.04 170.61,476.97 L 163.75,482.85 C 161.01,485.54 158.26,487.47 156.21,488.65 154.15,489.89 151.4,490.51 148.66,490.51 L 143.86,489.96 C 138.37,488.51 134.94,485.75 132.88,481.53 121.9,480.2 112.98,479.53 107.49,479.53" />
    </g>
    <g id="canvas1-appleTV">
        <path id="canvas1-bezier6" stroke="none" fill="#cbcbcb" d="M 399.63,261 C 398.27,261.07 396.82,261.49 395.29,262.24 393.82,262.97 392.59,263.88 391.62,264.97 L 391.5,265.1 C 389.5,267.37 388.38,270.14 388.38,272.74 388.38,273.1 388.4,273.44 388.44,273.76 390.7,273.94 392.82,273.14 394.73,271.62 395.43,271.06 396.11,270.39 396.75,269.64 398.71,267.3 399.69,264.78 399.69,262.08 399.69,261.72 399.67,261.36 399.63,261 Z M 395.89,274.13 C 395.08,274.31 394.2,274.57 393.28,274.91 390.73,275.85 389.22,276.32 388.78,276.32 388.18,276.32 386.83,275.92 384.72,275.12 382.61,274.33 380.91,273.93 379.61,273.93 377.24,273.97 375.03,274.59 373,275.8 370.96,277.02 369.33,278.68 368.11,280.78 366.55,283.39 365.77,286.51 365.77,290.13 365.77,293.29 366.35,296.56 367.5,299.93 368.57,303.05 369.94,305.78 371.61,308.14 373.17,310.35 374.46,311.91 375.5,312.82 377.13,314.34 378.75,315.07 380.39,315 381.46,314.96 382.87,314.59 384.61,313.88 386.35,313.17 387.98,312.82 389.5,312.82 390.95,312.82 392.53,313.17 394.25,313.88 395.97,314.59 397.44,314.94 398.67,314.94 400.37,314.9 401.96,314.2 403.45,312.82 404.4,311.99 405.65,310.48 407.17,308.3 408.28,306.71 409.24,304.97 410.05,303.08 410.39,302.28 410.7,301.45 411,300.58 409.62,300 408.39,299.18 407.28,298.13 407.17,298.02 407.06,297.91 406.95,297.8 404.99,295.84 403.87,293.46 403.62,290.67 403.58,290.3 403.56,289.92 403.56,289.54 403.52,285.11 405.52,281.66 409.56,279.2 407.3,275.98 403.91,274.18 399.39,273.82 398.36,273.73 397.2,273.83 395.89,274.13 Z M 474.07,275.81 L 467.84,275.81 457.97,305.98 457.83,305.98 447.68,275.81 441.03,275.81 454.47,312 460.84,312 474.07,275.81 Z M 430.74,264.96 L 424.79,264.96 424.79,275.81 418.63,275.81 418.63,281.06 424.79,281.06 424.79,304.09 C 424.79,305.77 424.95,307.12 425.28,308.15 425.61,309.18 426.11,309.97 426.78,310.53 427.46,311.09 428.35,311.47 429.44,311.68 430.54,311.9 431.86,312 433.4,312 L 437.95,312 437.95,306.75 435.22,306.75 C 434.29,306.75 433.53,306.72 432.94,306.64 432.36,306.57 431.91,306.42 431.58,306.19 431.25,305.96 431.03,305.63 430.92,305.21 430.8,304.79 430.74,304.23 430.74,303.53 L 430.74,281.06 437.95,281.06 437.95,275.81 430.74,275.81 430.74,264.96 Z M 495,223 L 495,353 C 495,358.52 490.52,363 485,363 L 355,363 C 349.48,363 345,358.52 345,353 L 345,223 C 345,217.48 349.48,213 355,213 L 485,213 C 490.52,213 495,217.48 495,223 Z M 495,223" />
    </g>
</svg>