<?xml version="1.0" encoding="UTF-8"?>
<!DOCTYPE svg PUBLIC "-//W3C//DTD SVG 1.1//EN" "http://www.w3.org/Graphics/SVG/1.1/DTD/svg11.dtd">
<svg version="1.1" xmlns="http://www.w3.org/2000/svg" xmlns:xlink="http://www.w3.org/1999/xlink" width="512" height="512"  xml:space="preserve" id="swift">
    <!-- Generated by PaintCode - http://www.paintcodeapp.com -->
    <path id="swift-swiftbezier" stroke="none" fill="#cbcbcb" d="M 374.52,436.97 C 319.15,468.85 243.03,472.13 166.43,439.42 104.42,413.12 52.98,367.1 20,314.51 35.82,327.66 54.29,338.17 74.08,347.39 153.17,384.33 232.25,381.81 287.9,347.47 287.86,347.45 287.84,347.41 287.82,347.39 208.66,286.91 141.37,208.02 91.24,143.6 80.68,133.09 72.77,119.93 64.85,108.1 125.53,163.32 221.84,233.01 256.15,252.72 183.58,176.46 118.94,81.8 121.58,84.44 236.36,200.12 343.22,265.87 343.22,265.87 346.77,267.86 349.49,269.51 351.69,270.98 354.01,265.12 356.02,259.04 357.73,252.72 376.22,185.68 355.09,109.42 308.93,46.31 415.79,110.73 479.12,231.68 452.74,332.93 452.03,335.65 451.29,338.34 450.47,340.99 450.78,341.37 451.08,341.75 451.41,342.13 504.18,407.86 489.67,477.54 483.07,464.39 454.45,408.58 401.44,425.65 374.52,436.97 Z M 374.52,436.97" />
</svg>